<mxfile host="app.diagrams.net" modified="2023-09-05T10:46:25.369Z" agent="Mozilla/5.0 (Macintosh; Intel Mac OS X 10_15_7) AppleWebKit/605.1.15 (KHTML, like Gecko) Version/16.6 Safari/605.1.15" etag="gkZMhZ2WgnbkmWdnQuDQ" version="21.7.2" type="github">
  <diagram name="Page-1" id="9f46799a-70d6-7492-0946-bef42562c5a5">
    <mxGraphModel dx="2554" dy="1650" grid="0" gridSize="10" guides="1" tooltips="1" connect="1" arrows="1" fold="1" page="1" pageScale="1" pageWidth="1100" pageHeight="850" background="#FFFFFF" math="0" shadow="0">
      <root>
        <mxCell id="0" />
        <mxCell id="1" parent="0" />
        <mxCell id="78961159f06e98e8-17" value="datos_filtrados3_largo40.json" style="swimlane;html=1;fontStyle=1;align=center;verticalAlign=top;childLayout=stackLayout;horizontal=1;startSize=26;horizontalStack=0;resizeParent=1;resizeLast=0;collapsible=1;marginBottom=0;swimlaneFillColor=#4F7942;rounded=1;shadow=1;comic=0;labelBackgroundColor=none;strokeWidth=1;fillColor=#3F704D;fontFamily=font-family: &#39;Roboto&#39;, sans-serif;;fontSize=12;glass=0;fontSource=https%3A%2F%2Ffonts.googleapis.com%2Fcss%3Ffamily%3Dfont-family%253A%2B&#39;Roboto&#39;%252C%2Bsans-serif%253B;swimlaneLine=1;strokeColor=#3A5431;fontColor=#ffffff;" parent="1" vertex="1">
          <mxGeometry x="330" y="22" width="176" height="118" as="geometry" />
        </mxCell>
        <mxCell id="78961159f06e98e8-24" value="605.450 TXS" style="text;html=1;strokeColor=none;fillColor=none;align=left;verticalAlign=top;spacingLeft=4;spacingRight=4;whiteSpace=wrap;overflow=hidden;rotatable=0;points=[[0,0.5],[1,0.5]];portConstraint=eastwest;fontFamily=font-family: &#39;Roboto&#39;, sans-serif;;fontSource=https%3A%2F%2Ffonts.googleapis.com%2Fcss%3Ffamily%3Dfont-family%253A%2B&#39;Roboto&#39;%252C%2Bsans-serif%253B;fontColor=#F7F7F7;rounded=1;" parent="78961159f06e98e8-17" vertex="1">
          <mxGeometry y="26" width="176" height="26" as="geometry" />
        </mxCell>
        <mxCell id="78961159f06e98e8-19" value="" style="line;html=1;strokeWidth=1;fillColor=none;align=left;verticalAlign=middle;spacingTop=-1;spacingLeft=3;spacingRight=3;rotatable=0;labelPosition=right;points=[];portConstraint=eastwest;rounded=1;" parent="78961159f06e98e8-17" vertex="1">
          <mxGeometry y="52" width="176" height="8" as="geometry" />
        </mxCell>
        <mxCell id="78961159f06e98e8-20" value="FECHA LARGO 8" style="text;html=1;strokeColor=none;fillColor=none;align=left;verticalAlign=top;spacingLeft=4;spacingRight=4;whiteSpace=wrap;overflow=hidden;rotatable=0;points=[[0,0.5],[1,0.5]];portConstraint=eastwest;fontFamily=font-family: &#39;Roboto&#39;, sans-serif;;fontSource=https%3A%2F%2Ffonts.googleapis.com%2Fcss%3Ffamily%3Dfont-family%253A%2B&#39;Roboto&#39;%252C%2Bsans-serif%253B;fontColor=#F7F7F7;rounded=1;" parent="78961159f06e98e8-17" vertex="1">
          <mxGeometry y="60" width="176" height="26" as="geometry" />
        </mxCell>
        <mxCell id="78961159f06e98e8-27" value="COMERCIO=PRONTO" style="text;html=1;strokeColor=none;fillColor=none;align=left;verticalAlign=top;spacingLeft=4;spacingRight=4;whiteSpace=wrap;overflow=hidden;rotatable=0;points=[[0,0.5],[1,0.5]];portConstraint=eastwest;fontFamily=font-family: &#39;Roboto&#39;, sans-serif;;fontSource=https%3A%2F%2Ffonts.googleapis.com%2Fcss%3Ffamily%3Dfont-family%253A%2B&#39;Roboto&#39;%252C%2Bsans-serif%253B;fontColor=#F7F7F7;rounded=1;" parent="78961159f06e98e8-17" vertex="1">
          <mxGeometry y="86" width="176" height="26" as="geometry" />
        </mxCell>
        <mxCell id="7iV-3QqABHb4uCZC2DnF-1" value="all_items.json" style="swimlane;html=1;fontStyle=1;align=center;verticalAlign=top;childLayout=stackLayout;horizontal=1;startSize=26;horizontalStack=0;resizeParent=1;resizeLast=0;collapsible=1;marginBottom=0;swimlaneFillColor=#4F7942;rounded=1;shadow=1;comic=0;labelBackgroundColor=none;strokeWidth=1;fillColor=#3F704D;fontFamily=font-family: &#39;Roboto&#39;, sans-serif;;fontSize=12;glass=0;fontSource=https%3A%2F%2Ffonts.googleapis.com%2Fcss%3Ffamily%3Dfont-family%253A%2B&#39;Roboto&#39;%252C%2Bsans-serif%253B;swimlaneLine=1;strokeColor=#3A5431;fontColor=#ffffff;" parent="1" vertex="1">
          <mxGeometry x="86" y="22" width="160" height="97" as="geometry" />
        </mxCell>
        <mxCell id="7iV-3QqABHb4uCZC2DnF-2" value="5.769.394 TXS" style="text;html=1;strokeColor=none;fillColor=none;align=left;verticalAlign=top;spacingLeft=4;spacingRight=4;whiteSpace=wrap;overflow=hidden;rotatable=0;points=[[0,0.5],[1,0.5]];portConstraint=eastwest;fontFamily=font-family: &#39;Roboto&#39;, sans-serif;;fontSource=https%3A%2F%2Ffonts.googleapis.com%2Fcss%3Ffamily%3Dfont-family%253A%2B&#39;Roboto&#39;%252C%2Bsans-serif%253B;fontColor=#F7F7F7;rounded=1;" parent="7iV-3QqABHb4uCZC2DnF-1" vertex="1">
          <mxGeometry y="26" width="160" height="26" as="geometry" />
        </mxCell>
        <mxCell id="7iV-3QqABHb4uCZC2DnF-7" value="" style="line;html=1;strokeWidth=1;fillColor=none;align=left;verticalAlign=middle;spacingTop=-1;spacingLeft=3;spacingRight=3;rotatable=0;labelPosition=right;points=[];portConstraint=eastwest;rounded=1;" parent="7iV-3QqABHb4uCZC2DnF-1" vertex="1">
          <mxGeometry y="52" width="160" height="8" as="geometry" />
        </mxCell>
        <mxCell id="7iV-3QqABHb4uCZC2DnF-9" value="TIENDAS" style="text;html=1;strokeColor=none;fillColor=none;align=left;verticalAlign=top;spacingLeft=4;spacingRight=4;whiteSpace=wrap;overflow=hidden;rotatable=0;points=[[0,0.5],[1,0.5]];portConstraint=eastwest;fontFamily=font-family: &#39;Roboto&#39;, sans-serif;;fontSource=https%3A%2F%2Ffonts.googleapis.com%2Fcss%3Ffamily%3Dfont-family%253A%2B&#39;Roboto&#39;%252C%2Bsans-serif%253B;fontColor=#F7F7F7;rounded=1;" parent="7iV-3QqABHb4uCZC2DnF-1" vertex="1">
          <mxGeometry y="60" width="160" height="26" as="geometry" />
        </mxCell>
        <mxCell id="7iV-3QqABHb4uCZC2DnF-13" value="datos_filtrados_40sckuba_sinlote.json" style="swimlane;html=1;fontStyle=1;align=center;verticalAlign=top;childLayout=stackLayout;horizontal=1;startSize=26;horizontalStack=0;resizeParent=1;resizeLast=0;collapsible=1;marginBottom=0;swimlaneFillColor=#4F7942;rounded=1;shadow=1;comic=0;labelBackgroundColor=none;strokeWidth=1;fillColor=#3F704D;fontFamily=font-family: &#39;Roboto&#39;, sans-serif;;fontSize=12;glass=0;fontSource=https%3A%2F%2Ffonts.googleapis.com%2Fcss%3Ffamily%3Dfont-family%253A%2B&#39;Roboto&#39;%252C%2Bsans-serif%253B;swimlaneLine=1;strokeColor=#3A5431;fontColor=#ffffff;" parent="1" vertex="1">
          <mxGeometry x="599" y="22" width="236" height="148" as="geometry" />
        </mxCell>
        <mxCell id="7iV-3QqABHb4uCZC2DnF-14" value="563.639 TXS" style="text;html=1;strokeColor=none;fillColor=none;align=left;verticalAlign=top;spacingLeft=4;spacingRight=4;whiteSpace=wrap;overflow=hidden;rotatable=0;points=[[0,0.5],[1,0.5]];portConstraint=eastwest;fontFamily=font-family: &#39;Roboto&#39;, sans-serif;;fontSource=https%3A%2F%2Ffonts.googleapis.com%2Fcss%3Ffamily%3Dfont-family%253A%2B&#39;Roboto&#39;%252C%2Bsans-serif%253B;fontColor=#F7F7F7;rounded=1;" parent="7iV-3QqABHb4uCZC2DnF-13" vertex="1">
          <mxGeometry y="26" width="236" height="26" as="geometry" />
        </mxCell>
        <mxCell id="7iV-3QqABHb4uCZC2DnF-15" value="" style="line;html=1;strokeWidth=1;fillColor=none;align=left;verticalAlign=middle;spacingTop=-1;spacingLeft=3;spacingRight=3;rotatable=0;labelPosition=right;points=[];portConstraint=eastwest;rounded=1;" parent="7iV-3QqABHb4uCZC2DnF-13" vertex="1">
          <mxGeometry y="52" width="236" height="8" as="geometry" />
        </mxCell>
        <mxCell id="7iV-3QqABHb4uCZC2DnF-16" value="FECHA LARGO 8" style="text;html=1;strokeColor=none;fillColor=none;align=left;verticalAlign=top;spacingLeft=4;spacingRight=4;whiteSpace=wrap;overflow=hidden;rotatable=0;points=[[0,0.5],[1,0.5]];portConstraint=eastwest;fontFamily=font-family: &#39;Roboto&#39;, sans-serif;;fontSource=https%3A%2F%2Ffonts.googleapis.com%2Fcss%3Ffamily%3Dfont-family%253A%2B&#39;Roboto&#39;%252C%2Bsans-serif%253B;fontColor=#F7F7F7;rounded=1;" parent="7iV-3QqABHb4uCZC2DnF-13" vertex="1">
          <mxGeometry y="60" width="236" height="26" as="geometry" />
        </mxCell>
        <mxCell id="7iV-3QqABHb4uCZC2DnF-17" value="COMERCIO=PRONTO" style="text;html=1;strokeColor=none;fillColor=none;align=left;verticalAlign=top;spacingLeft=4;spacingRight=4;whiteSpace=wrap;overflow=hidden;rotatable=0;points=[[0,0.5],[1,0.5]];portConstraint=eastwest;fontFamily=font-family: &#39;Roboto&#39;, sans-serif;;fontSource=https%3A%2F%2Ffonts.googleapis.com%2Fcss%3Ffamily%3Dfont-family%253A%2B&#39;Roboto&#39;%252C%2Bsans-serif%253B;fontColor=#F7F7F7;rounded=1;" parent="7iV-3QqABHb4uCZC2DnF-13" vertex="1">
          <mxGeometry y="86" width="236" height="26" as="geometry" />
        </mxCell>
        <mxCell id="7iV-3QqABHb4uCZC2DnF-18" value="SIN LOTE&lt;br&gt;" style="text;html=1;strokeColor=none;fillColor=none;align=left;verticalAlign=top;spacingLeft=4;spacingRight=4;whiteSpace=wrap;overflow=hidden;rotatable=0;points=[[0,0.5],[1,0.5]];portConstraint=eastwest;fontFamily=font-family: &#39;Roboto&#39;, sans-serif;;fontSource=https%3A%2F%2Ffonts.googleapis.com%2Fcss%3Ffamily%3Dfont-family%253A%2B&#39;Roboto&#39;%252C%2Bsans-serif%253B;fontColor=#F7F7F7;rounded=1;" parent="7iV-3QqABHb4uCZC2DnF-13" vertex="1">
          <mxGeometry y="112" width="236" height="26" as="geometry" />
        </mxCell>
        <mxCell id="7iV-3QqABHb4uCZC2DnF-19" style="edgeStyle=orthogonalEdgeStyle;rounded=0;orthogonalLoop=1;jettySize=auto;html=1;exitX=1;exitY=0.5;exitDx=0;exitDy=0;entryX=0;entryY=0.5;entryDx=0;entryDy=0;" parent="1" source="7iV-3QqABHb4uCZC2DnF-2" target="78961159f06e98e8-24" edge="1">
          <mxGeometry relative="1" as="geometry" />
        </mxCell>
        <mxCell id="7iV-3QqABHb4uCZC2DnF-20" style="edgeStyle=orthogonalEdgeStyle;rounded=0;orthogonalLoop=1;jettySize=auto;html=1;exitX=1;exitY=0.5;exitDx=0;exitDy=0;entryX=0;entryY=0.5;entryDx=0;entryDy=0;" parent="1" source="78961159f06e98e8-24" target="7iV-3QqABHb4uCZC2DnF-14" edge="1">
          <mxGeometry relative="1" as="geometry" />
        </mxCell>
        <mxCell id="7iV-3QqABHb4uCZC2DnF-44" style="edgeStyle=orthogonalEdgeStyle;rounded=0;orthogonalLoop=1;jettySize=auto;html=1;exitX=0.5;exitY=1;exitDx=0;exitDy=0;entryX=0.5;entryY=0;entryDx=0;entryDy=0;" parent="1" source="7iV-3QqABHb4uCZC2DnF-21" target="7iV-3QqABHb4uCZC2DnF-37" edge="1">
          <mxGeometry relative="1" as="geometry" />
        </mxCell>
        <mxCell id="7iV-3QqABHb4uCZC2DnF-55" style="edgeStyle=orthogonalEdgeStyle;rounded=0;orthogonalLoop=1;jettySize=auto;html=1;exitX=0.5;exitY=1;exitDx=0;exitDy=0;" parent="1" source="7iV-3QqABHb4uCZC2DnF-21" target="7iV-3QqABHb4uCZC2DnF-46" edge="1">
          <mxGeometry relative="1" as="geometry" />
        </mxCell>
        <mxCell id="7iV-3QqABHb4uCZC2DnF-64" style="edgeStyle=orthogonalEdgeStyle;rounded=0;orthogonalLoop=1;jettySize=auto;html=1;exitX=0.5;exitY=1;exitDx=0;exitDy=0;entryX=0.478;entryY=0.005;entryDx=0;entryDy=0;entryPerimeter=0;" parent="1" source="7iV-3QqABHb4uCZC2DnF-21" target="7iV-3QqABHb4uCZC2DnF-56" edge="1">
          <mxGeometry relative="1" as="geometry" />
        </mxCell>
        <mxCell id="7iV-3QqABHb4uCZC2DnF-97" value="&lt;br&gt;" style="edgeStyle=orthogonalEdgeStyle;rounded=0;orthogonalLoop=1;jettySize=auto;html=1;exitX=0.5;exitY=1;exitDx=0;exitDy=0;" parent="1" source="7iV-3QqABHb4uCZC2DnF-21" target="7iV-3QqABHb4uCZC2DnF-65" edge="1">
          <mxGeometry relative="1" as="geometry" />
        </mxCell>
        <mxCell id="7iV-3QqABHb4uCZC2DnF-98" style="edgeStyle=orthogonalEdgeStyle;rounded=0;orthogonalLoop=1;jettySize=auto;html=1;exitX=0.5;exitY=1;exitDx=0;exitDy=0;" parent="1" source="7iV-3QqABHb4uCZC2DnF-21" target="7iV-3QqABHb4uCZC2DnF-73" edge="1">
          <mxGeometry relative="1" as="geometry" />
        </mxCell>
        <mxCell id="7iV-3QqABHb4uCZC2DnF-99" style="edgeStyle=orthogonalEdgeStyle;rounded=0;orthogonalLoop=1;jettySize=auto;html=1;exitX=0.5;exitY=1;exitDx=0;exitDy=0;" parent="1" source="7iV-3QqABHb4uCZC2DnF-21" target="7iV-3QqABHb4uCZC2DnF-81" edge="1">
          <mxGeometry relative="1" as="geometry" />
        </mxCell>
        <mxCell id="7iV-3QqABHb4uCZC2DnF-100" style="edgeStyle=orthogonalEdgeStyle;rounded=0;orthogonalLoop=1;jettySize=auto;html=1;exitX=0.5;exitY=1;exitDx=0;exitDy=0;entryX=0.5;entryY=0;entryDx=0;entryDy=0;" parent="1" source="7iV-3QqABHb4uCZC2DnF-21" target="7iV-3QqABHb4uCZC2DnF-89" edge="1">
          <mxGeometry relative="1" as="geometry" />
        </mxCell>
        <mxCell id="1mWBqxpM2r-LrcwGqkgM-9" style="edgeStyle=orthogonalEdgeStyle;rounded=0;orthogonalLoop=1;jettySize=auto;html=1;exitX=0.5;exitY=0;exitDx=0;exitDy=0;entryX=0.5;entryY=0;entryDx=0;entryDy=0;" parent="1" source="7iV-3QqABHb4uCZC2DnF-21" target="7iV-3QqABHb4uCZC2DnF-21" edge="1">
          <mxGeometry relative="1" as="geometry" />
        </mxCell>
        <mxCell id="7iV-3QqABHb4uCZC2DnF-21" value="datos_filtrados_40sckuba_sinlote.json" style="swimlane;html=1;fontStyle=1;align=center;verticalAlign=top;childLayout=stackLayout;horizontal=1;startSize=26;horizontalStack=0;resizeParent=1;resizeLast=0;collapsible=1;marginBottom=0;swimlaneFillColor=#4F7942;rounded=1;shadow=1;comic=0;labelBackgroundColor=none;strokeWidth=1;fillColor=#3F704D;fontFamily=font-family: &#39;Roboto&#39;, sans-serif;;fontSize=12;glass=0;fontSource=https%3A%2F%2Ffonts.googleapis.com%2Fcss%3Ffamily%3Dfont-family%253A%2B&#39;Roboto&#39;%252C%2Bsans-serif%253B;swimlaneLine=1;strokeColor=#3A5431;fontColor=#ffffff;" parent="1" vertex="1">
          <mxGeometry x="969" y="14" width="236" height="169" as="geometry" />
        </mxCell>
        <mxCell id="7iV-3QqABHb4uCZC2DnF-22" value="563.639 TXS" style="text;html=1;strokeColor=none;fillColor=none;align=left;verticalAlign=top;spacingLeft=4;spacingRight=4;whiteSpace=wrap;overflow=hidden;rotatable=0;points=[[0,0.5],[1,0.5]];portConstraint=eastwest;fontFamily=font-family: &#39;Roboto&#39;, sans-serif;;fontSource=https%3A%2F%2Ffonts.googleapis.com%2Fcss%3Ffamily%3Dfont-family%253A%2B&#39;Roboto&#39;%252C%2Bsans-serif%253B;fontColor=#F7F7F7;rounded=1;" parent="7iV-3QqABHb4uCZC2DnF-21" vertex="1">
          <mxGeometry y="26" width="236" height="26" as="geometry" />
        </mxCell>
        <mxCell id="7iV-3QqABHb4uCZC2DnF-23" value="" style="line;html=1;strokeWidth=1;fillColor=none;align=left;verticalAlign=middle;spacingTop=-1;spacingLeft=3;spacingRight=3;rotatable=0;labelPosition=right;points=[];portConstraint=eastwest;rounded=1;" parent="7iV-3QqABHb4uCZC2DnF-21" vertex="1">
          <mxGeometry y="52" width="236" height="8" as="geometry" />
        </mxCell>
        <mxCell id="7iV-3QqABHb4uCZC2DnF-24" value="FECHA LARGO 8" style="text;html=1;strokeColor=none;fillColor=none;align=left;verticalAlign=top;spacingLeft=4;spacingRight=4;whiteSpace=wrap;overflow=hidden;rotatable=0;points=[[0,0.5],[1,0.5]];portConstraint=eastwest;fontFamily=font-family: &#39;Roboto&#39;, sans-serif;;fontSource=https%3A%2F%2Ffonts.googleapis.com%2Fcss%3Ffamily%3Dfont-family%253A%2B&#39;Roboto&#39;%252C%2Bsans-serif%253B;fontColor=#F7F7F7;rounded=1;" parent="7iV-3QqABHb4uCZC2DnF-21" vertex="1">
          <mxGeometry y="60" width="236" height="26" as="geometry" />
        </mxCell>
        <mxCell id="7iV-3QqABHb4uCZC2DnF-25" value="COMERCIO=PRONTO" style="text;html=1;strokeColor=none;fillColor=none;align=left;verticalAlign=top;spacingLeft=4;spacingRight=4;whiteSpace=wrap;overflow=hidden;rotatable=0;points=[[0,0.5],[1,0.5]];portConstraint=eastwest;fontFamily=font-family: &#39;Roboto&#39;, sans-serif;;fontSource=https%3A%2F%2Ffonts.googleapis.com%2Fcss%3Ffamily%3Dfont-family%253A%2B&#39;Roboto&#39;%252C%2Bsans-serif%253B;fontColor=#F7F7F7;rounded=1;" parent="7iV-3QqABHb4uCZC2DnF-21" vertex="1">
          <mxGeometry y="86" width="236" height="26" as="geometry" />
        </mxCell>
        <mxCell id="7iV-3QqABHb4uCZC2DnF-26" value="SIN LOTE&lt;br&gt;" style="text;html=1;strokeColor=none;fillColor=none;align=left;verticalAlign=top;spacingLeft=4;spacingRight=4;whiteSpace=wrap;overflow=hidden;rotatable=0;points=[[0,0.5],[1,0.5]];portConstraint=eastwest;fontFamily=font-family: &#39;Roboto&#39;, sans-serif;;fontSource=https%3A%2F%2Ffonts.googleapis.com%2Fcss%3Ffamily%3Dfont-family%253A%2B&#39;Roboto&#39;%252C%2Bsans-serif%253B;fontColor=#F7F7F7;rounded=1;" parent="7iV-3QqABHb4uCZC2DnF-21" vertex="1">
          <mxGeometry y="112" width="236" height="26" as="geometry" />
        </mxCell>
        <mxCell id="7iV-3QqABHb4uCZC2DnF-29" value="MONTO_DESCUENTO &amp;gt; 0" style="text;html=1;strokeColor=none;fillColor=none;align=left;verticalAlign=top;spacingLeft=4;spacingRight=4;whiteSpace=wrap;overflow=hidden;rotatable=0;points=[[0,0.5],[1,0.5]];portConstraint=eastwest;fontFamily=font-family: &#39;Roboto&#39;, sans-serif;;fontSource=https%3A%2F%2Ffonts.googleapis.com%2Fcss%3Ffamily%3Dfont-family%253A%2B&#39;Roboto&#39;%252C%2Bsans-serif%253B;fontColor=#F7F7F7;rounded=1;" parent="7iV-3QqABHb4uCZC2DnF-21" vertex="1">
          <mxGeometry y="138" width="236" height="26" as="geometry" />
        </mxCell>
        <mxCell id="7iV-3QqABHb4uCZC2DnF-139" style="edgeStyle=orthogonalEdgeStyle;rounded=0;orthogonalLoop=1;jettySize=auto;html=1;exitX=0.5;exitY=1;exitDx=0;exitDy=0;" parent="1" source="7iV-3QqABHb4uCZC2DnF-37" target="7iV-3QqABHb4uCZC2DnF-125" edge="1">
          <mxGeometry relative="1" as="geometry" />
        </mxCell>
        <mxCell id="7iV-3QqABHb4uCZC2DnF-37" value="FIDELIDAD=0#CONCILIADA=0.json" style="swimlane;html=1;fontStyle=1;align=center;verticalAlign=top;childLayout=stackLayout;horizontal=1;startSize=26;horizontalStack=0;resizeParent=1;resizeLast=0;collapsible=1;marginBottom=0;swimlaneFillColor=#4F7942;rounded=1;shadow=1;comic=0;labelBackgroundColor=none;strokeWidth=1;fillColor=#3F704D;fontFamily=font-family: &#39;Roboto&#39;, sans-serif;;fontSize=12;glass=0;fontSource=https%3A%2F%2Ffonts.googleapis.com%2Fcss%3Ffamily%3Dfont-family%253A%2B&#39;Roboto&#39;%252C%2Bsans-serif%253B;swimlaneLine=1;strokeColor=#3A5431;fontColor=#ffffff;" parent="1" vertex="1">
          <mxGeometry x="50" y="235" width="236" height="199" as="geometry" />
        </mxCell>
        <mxCell id="7iV-3QqABHb4uCZC2DnF-38" value="336.326 TXS" style="text;html=1;strokeColor=none;fillColor=none;align=left;verticalAlign=top;spacingLeft=4;spacingRight=4;whiteSpace=wrap;overflow=hidden;rotatable=0;points=[[0,0.5],[1,0.5]];portConstraint=eastwest;fontFamily=font-family: &#39;Roboto&#39;, sans-serif;;fontSource=https%3A%2F%2Ffonts.googleapis.com%2Fcss%3Ffamily%3Dfont-family%253A%2B&#39;Roboto&#39;%252C%2Bsans-serif%253B;fontColor=#F7F7F7;rounded=1;" parent="7iV-3QqABHb4uCZC2DnF-37" vertex="1">
          <mxGeometry y="26" width="236" height="26" as="geometry" />
        </mxCell>
        <mxCell id="7iV-3QqABHb4uCZC2DnF-39" value="" style="line;html=1;strokeWidth=1;fillColor=none;align=left;verticalAlign=middle;spacingTop=-1;spacingLeft=3;spacingRight=3;rotatable=0;labelPosition=right;points=[];portConstraint=eastwest;rounded=1;" parent="7iV-3QqABHb4uCZC2DnF-37" vertex="1">
          <mxGeometry y="52" width="236" height="8" as="geometry" />
        </mxCell>
        <mxCell id="7iV-3QqABHb4uCZC2DnF-40" value="FECHA LARGO 8" style="text;html=1;strokeColor=none;fillColor=none;align=left;verticalAlign=top;spacingLeft=4;spacingRight=4;whiteSpace=wrap;overflow=hidden;rotatable=0;points=[[0,0.5],[1,0.5]];portConstraint=eastwest;fontFamily=font-family: &#39;Roboto&#39;, sans-serif;;fontSource=https%3A%2F%2Ffonts.googleapis.com%2Fcss%3Ffamily%3Dfont-family%253A%2B&#39;Roboto&#39;%252C%2Bsans-serif%253B;fontColor=#F7F7F7;rounded=1;" parent="7iV-3QqABHb4uCZC2DnF-37" vertex="1">
          <mxGeometry y="60" width="236" height="26" as="geometry" />
        </mxCell>
        <mxCell id="7iV-3QqABHb4uCZC2DnF-41" value="COMERCIO=PRONTO" style="text;html=1;strokeColor=none;fillColor=none;align=left;verticalAlign=top;spacingLeft=4;spacingRight=4;whiteSpace=wrap;overflow=hidden;rotatable=0;points=[[0,0.5],[1,0.5]];portConstraint=eastwest;fontFamily=font-family: &#39;Roboto&#39;, sans-serif;;fontSource=https%3A%2F%2Ffonts.googleapis.com%2Fcss%3Ffamily%3Dfont-family%253A%2B&#39;Roboto&#39;%252C%2Bsans-serif%253B;fontColor=#F7F7F7;rounded=1;" parent="7iV-3QqABHb4uCZC2DnF-37" vertex="1">
          <mxGeometry y="86" width="236" height="26" as="geometry" />
        </mxCell>
        <mxCell id="7iV-3QqABHb4uCZC2DnF-42" value="SIN LOTE&lt;br&gt;" style="text;html=1;strokeColor=none;fillColor=none;align=left;verticalAlign=top;spacingLeft=4;spacingRight=4;whiteSpace=wrap;overflow=hidden;rotatable=0;points=[[0,0.5],[1,0.5]];portConstraint=eastwest;fontFamily=font-family: &#39;Roboto&#39;, sans-serif;;fontSource=https%3A%2F%2Ffonts.googleapis.com%2Fcss%3Ffamily%3Dfont-family%253A%2B&#39;Roboto&#39;%252C%2Bsans-serif%253B;fontColor=#F7F7F7;rounded=1;" parent="7iV-3QqABHb4uCZC2DnF-37" vertex="1">
          <mxGeometry y="112" width="236" height="26" as="geometry" />
        </mxCell>
        <mxCell id="7iV-3QqABHb4uCZC2DnF-43" value="MONTO_DESCUENTO &amp;gt; 0" style="text;html=1;strokeColor=none;fillColor=none;align=left;verticalAlign=top;spacingLeft=4;spacingRight=4;whiteSpace=wrap;overflow=hidden;rotatable=0;points=[[0,0.5],[1,0.5]];portConstraint=eastwest;fontFamily=font-family: &#39;Roboto&#39;, sans-serif;;fontSource=https%3A%2F%2Ffonts.googleapis.com%2Fcss%3Ffamily%3Dfont-family%253A%2B&#39;Roboto&#39;%252C%2Bsans-serif%253B;fontColor=#F7F7F7;rounded=1;" parent="7iV-3QqABHb4uCZC2DnF-37" vertex="1">
          <mxGeometry y="138" width="236" height="26" as="geometry" />
        </mxCell>
        <mxCell id="7iV-3QqABHb4uCZC2DnF-45" value="FIDELIDAD=0#CONCILIADA=0" style="text;html=1;strokeColor=none;fillColor=none;align=left;verticalAlign=top;spacingLeft=4;spacingRight=4;whiteSpace=wrap;overflow=hidden;rotatable=0;points=[[0,0.5],[1,0.5]];portConstraint=eastwest;fontFamily=font-family: &#39;Roboto&#39;, sans-serif;;fontSource=https%3A%2F%2Ffonts.googleapis.com%2Fcss%3Ffamily%3Dfont-family%253A%2B&#39;Roboto&#39;%252C%2Bsans-serif%253B;fontColor=#F7F7F7;rounded=1;" parent="7iV-3QqABHb4uCZC2DnF-37" vertex="1">
          <mxGeometry y="164" width="236" height="26" as="geometry" />
        </mxCell>
        <mxCell id="7iV-3QqABHb4uCZC2DnF-46" value="FIDELIDAD=1#CONCILIADA=1.json" style="swimlane;html=1;fontStyle=1;align=center;verticalAlign=top;childLayout=stackLayout;horizontal=1;startSize=26;horizontalStack=0;resizeParent=1;resizeLast=0;collapsible=1;marginBottom=0;swimlaneFillColor=#4F7942;rounded=1;shadow=1;comic=0;labelBackgroundColor=none;strokeWidth=1;fillColor=#3F704D;fontFamily=font-family: &#39;Roboto&#39;, sans-serif;;fontSize=12;glass=0;fontSource=https%3A%2F%2Ffonts.googleapis.com%2Fcss%3Ffamily%3Dfont-family%253A%2B&#39;Roboto&#39;%252C%2Bsans-serif%253B;swimlaneLine=1;strokeColor=#3A5431;fontColor=#ffffff;" parent="1" vertex="1">
          <mxGeometry x="332" y="237" width="236" height="199" as="geometry" />
        </mxCell>
        <mxCell id="7iV-3QqABHb4uCZC2DnF-47" value="132.083 TXS" style="text;html=1;strokeColor=none;fillColor=none;align=left;verticalAlign=top;spacingLeft=4;spacingRight=4;whiteSpace=wrap;overflow=hidden;rotatable=0;points=[[0,0.5],[1,0.5]];portConstraint=eastwest;fontFamily=font-family: &#39;Roboto&#39;, sans-serif;;fontSource=https%3A%2F%2Ffonts.googleapis.com%2Fcss%3Ffamily%3Dfont-family%253A%2B&#39;Roboto&#39;%252C%2Bsans-serif%253B;fontColor=#F7F7F7;rounded=1;" parent="7iV-3QqABHb4uCZC2DnF-46" vertex="1">
          <mxGeometry y="26" width="236" height="26" as="geometry" />
        </mxCell>
        <mxCell id="7iV-3QqABHb4uCZC2DnF-48" value="" style="line;html=1;strokeWidth=1;fillColor=none;align=left;verticalAlign=middle;spacingTop=-1;spacingLeft=3;spacingRight=3;rotatable=0;labelPosition=right;points=[];portConstraint=eastwest;rounded=1;" parent="7iV-3QqABHb4uCZC2DnF-46" vertex="1">
          <mxGeometry y="52" width="236" height="8" as="geometry" />
        </mxCell>
        <mxCell id="7iV-3QqABHb4uCZC2DnF-49" value="FECHA LARGO 8" style="text;html=1;strokeColor=none;fillColor=none;align=left;verticalAlign=top;spacingLeft=4;spacingRight=4;whiteSpace=wrap;overflow=hidden;rotatable=0;points=[[0,0.5],[1,0.5]];portConstraint=eastwest;fontFamily=font-family: &#39;Roboto&#39;, sans-serif;;fontSource=https%3A%2F%2Ffonts.googleapis.com%2Fcss%3Ffamily%3Dfont-family%253A%2B&#39;Roboto&#39;%252C%2Bsans-serif%253B;fontColor=#F7F7F7;rounded=1;" parent="7iV-3QqABHb4uCZC2DnF-46" vertex="1">
          <mxGeometry y="60" width="236" height="26" as="geometry" />
        </mxCell>
        <mxCell id="7iV-3QqABHb4uCZC2DnF-50" value="COMERCIO=PRONTO" style="text;html=1;strokeColor=none;fillColor=none;align=left;verticalAlign=top;spacingLeft=4;spacingRight=4;whiteSpace=wrap;overflow=hidden;rotatable=0;points=[[0,0.5],[1,0.5]];portConstraint=eastwest;fontFamily=font-family: &#39;Roboto&#39;, sans-serif;;fontSource=https%3A%2F%2Ffonts.googleapis.com%2Fcss%3Ffamily%3Dfont-family%253A%2B&#39;Roboto&#39;%252C%2Bsans-serif%253B;fontColor=#F7F7F7;rounded=1;" parent="7iV-3QqABHb4uCZC2DnF-46" vertex="1">
          <mxGeometry y="86" width="236" height="26" as="geometry" />
        </mxCell>
        <mxCell id="7iV-3QqABHb4uCZC2DnF-51" value="SIN LOTE&lt;br&gt;" style="text;html=1;strokeColor=none;fillColor=none;align=left;verticalAlign=top;spacingLeft=4;spacingRight=4;whiteSpace=wrap;overflow=hidden;rotatable=0;points=[[0,0.5],[1,0.5]];portConstraint=eastwest;fontFamily=font-family: &#39;Roboto&#39;, sans-serif;;fontSource=https%3A%2F%2Ffonts.googleapis.com%2Fcss%3Ffamily%3Dfont-family%253A%2B&#39;Roboto&#39;%252C%2Bsans-serif%253B;fontColor=#F7F7F7;rounded=1;" parent="7iV-3QqABHb4uCZC2DnF-46" vertex="1">
          <mxGeometry y="112" width="236" height="26" as="geometry" />
        </mxCell>
        <mxCell id="7iV-3QqABHb4uCZC2DnF-52" value="MONTO_DESCUENTO &amp;gt; 0" style="text;html=1;strokeColor=none;fillColor=none;align=left;verticalAlign=top;spacingLeft=4;spacingRight=4;whiteSpace=wrap;overflow=hidden;rotatable=0;points=[[0,0.5],[1,0.5]];portConstraint=eastwest;fontFamily=font-family: &#39;Roboto&#39;, sans-serif;;fontSource=https%3A%2F%2Ffonts.googleapis.com%2Fcss%3Ffamily%3Dfont-family%253A%2B&#39;Roboto&#39;%252C%2Bsans-serif%253B;fontColor=#F7F7F7;rounded=1;" parent="7iV-3QqABHb4uCZC2DnF-46" vertex="1">
          <mxGeometry y="138" width="236" height="26" as="geometry" />
        </mxCell>
        <mxCell id="7iV-3QqABHb4uCZC2DnF-53" value="FIDELIDAD=1#CONCILIADA=1" style="text;html=1;strokeColor=none;fillColor=none;align=left;verticalAlign=top;spacingLeft=4;spacingRight=4;whiteSpace=wrap;overflow=hidden;rotatable=0;points=[[0,0.5],[1,0.5]];portConstraint=eastwest;fontFamily=font-family: &#39;Roboto&#39;, sans-serif;;fontSource=https%3A%2F%2Ffonts.googleapis.com%2Fcss%3Ffamily%3Dfont-family%253A%2B&#39;Roboto&#39;%252C%2Bsans-serif%253B;fontColor=#F7F7F7;rounded=1;" parent="7iV-3QqABHb4uCZC2DnF-46" vertex="1">
          <mxGeometry y="164" width="236" height="26" as="geometry" />
        </mxCell>
        <mxCell id="sCa3DOTSbb0t7PZyeonU-2" style="edgeStyle=orthogonalEdgeStyle;rounded=0;orthogonalLoop=1;jettySize=auto;html=1;exitX=0.5;exitY=1;exitDx=0;exitDy=0;entryX=0.502;entryY=0.334;entryDx=0;entryDy=0;entryPerimeter=0;" parent="1" source="7iV-3QqABHb4uCZC2DnF-56" target="sCa3DOTSbb0t7PZyeonU-1" edge="1">
          <mxGeometry relative="1" as="geometry" />
        </mxCell>
        <mxCell id="7iV-3QqABHb4uCZC2DnF-56" value="FIDELIDAD=1#CONCILIADA=1#TIENDAS=1.json" style="swimlane;html=1;fontStyle=1;align=center;verticalAlign=top;childLayout=stackLayout;horizontal=1;startSize=25;horizontalStack=0;resizeParent=1;resizeLast=0;collapsible=1;marginBottom=0;swimlaneFillColor=#4F7942;rounded=1;shadow=1;comic=0;labelBackgroundColor=none;strokeWidth=1;fillColor=#3F704D;fontFamily=font-family: &#39;Roboto&#39;, sans-serif;;fontSize=12;glass=0;fontSource=https%3A%2F%2Ffonts.googleapis.com%2Fcss%3Ffamily%3Dfont-family%253A%2B&#39;Roboto&#39;%252C%2Bsans-serif%253B;swimlaneLine=1;strokeColor=#3A5431;fontColor=#ffffff;" parent="1" vertex="1">
          <mxGeometry x="610" y="237" width="301" height="199" as="geometry" />
        </mxCell>
        <mxCell id="7iV-3QqABHb4uCZC2DnF-57" value="53.390 TXS" style="text;html=1;strokeColor=none;fillColor=none;align=left;verticalAlign=top;spacingLeft=4;spacingRight=4;whiteSpace=wrap;overflow=hidden;rotatable=0;points=[[0,0.5],[1,0.5]];portConstraint=eastwest;fontFamily=font-family: &#39;Roboto&#39;, sans-serif;;fontSource=https%3A%2F%2Ffonts.googleapis.com%2Fcss%3Ffamily%3Dfont-family%253A%2B&#39;Roboto&#39;%252C%2Bsans-serif%253B;fontColor=#F7F7F7;rounded=1;" parent="7iV-3QqABHb4uCZC2DnF-56" vertex="1">
          <mxGeometry y="25" width="301" height="26" as="geometry" />
        </mxCell>
        <mxCell id="7iV-3QqABHb4uCZC2DnF-58" value="" style="line;html=1;strokeWidth=1;fillColor=none;align=left;verticalAlign=middle;spacingTop=-1;spacingLeft=3;spacingRight=3;rotatable=0;labelPosition=right;points=[];portConstraint=eastwest;rounded=1;" parent="7iV-3QqABHb4uCZC2DnF-56" vertex="1">
          <mxGeometry y="51" width="301" height="8" as="geometry" />
        </mxCell>
        <mxCell id="7iV-3QqABHb4uCZC2DnF-59" value="FECHA LARGO 8" style="text;html=1;strokeColor=none;fillColor=none;align=left;verticalAlign=top;spacingLeft=4;spacingRight=4;whiteSpace=wrap;overflow=hidden;rotatable=0;points=[[0,0.5],[1,0.5]];portConstraint=eastwest;fontFamily=font-family: &#39;Roboto&#39;, sans-serif;;fontSource=https%3A%2F%2Ffonts.googleapis.com%2Fcss%3Ffamily%3Dfont-family%253A%2B&#39;Roboto&#39;%252C%2Bsans-serif%253B;fontColor=#F7F7F7;rounded=1;" parent="7iV-3QqABHb4uCZC2DnF-56" vertex="1">
          <mxGeometry y="59" width="301" height="26" as="geometry" />
        </mxCell>
        <mxCell id="7iV-3QqABHb4uCZC2DnF-60" value="COMERCIO=PRONTO" style="text;html=1;strokeColor=none;fillColor=none;align=left;verticalAlign=top;spacingLeft=4;spacingRight=4;whiteSpace=wrap;overflow=hidden;rotatable=0;points=[[0,0.5],[1,0.5]];portConstraint=eastwest;fontFamily=font-family: &#39;Roboto&#39;, sans-serif;;fontSource=https%3A%2F%2Ffonts.googleapis.com%2Fcss%3Ffamily%3Dfont-family%253A%2B&#39;Roboto&#39;%252C%2Bsans-serif%253B;fontColor=#F7F7F7;rounded=1;" parent="7iV-3QqABHb4uCZC2DnF-56" vertex="1">
          <mxGeometry y="85" width="301" height="26" as="geometry" />
        </mxCell>
        <mxCell id="7iV-3QqABHb4uCZC2DnF-61" value="SIN LOTE&lt;br&gt;" style="text;html=1;strokeColor=none;fillColor=none;align=left;verticalAlign=top;spacingLeft=4;spacingRight=4;whiteSpace=wrap;overflow=hidden;rotatable=0;points=[[0,0.5],[1,0.5]];portConstraint=eastwest;fontFamily=font-family: &#39;Roboto&#39;, sans-serif;;fontSource=https%3A%2F%2Ffonts.googleapis.com%2Fcss%3Ffamily%3Dfont-family%253A%2B&#39;Roboto&#39;%252C%2Bsans-serif%253B;fontColor=#F7F7F7;rounded=1;" parent="7iV-3QqABHb4uCZC2DnF-56" vertex="1">
          <mxGeometry y="111" width="301" height="26" as="geometry" />
        </mxCell>
        <mxCell id="7iV-3QqABHb4uCZC2DnF-62" value="MONTO_DESCUENTO &amp;gt; 0" style="text;html=1;strokeColor=none;fillColor=none;align=left;verticalAlign=top;spacingLeft=4;spacingRight=4;whiteSpace=wrap;overflow=hidden;rotatable=0;points=[[0,0.5],[1,0.5]];portConstraint=eastwest;fontFamily=font-family: &#39;Roboto&#39;, sans-serif;;fontSource=https%3A%2F%2Ffonts.googleapis.com%2Fcss%3Ffamily%3Dfont-family%253A%2B&#39;Roboto&#39;%252C%2Bsans-serif%253B;fontColor=#F7F7F7;rounded=1;" parent="7iV-3QqABHb4uCZC2DnF-56" vertex="1">
          <mxGeometry y="137" width="301" height="26" as="geometry" />
        </mxCell>
        <mxCell id="7iV-3QqABHb4uCZC2DnF-63" value="FIDELIDAD=1#CONCILIADA=1#TIENDAS=1&lt;br/&gt;&lt;br/&gt;" style="text;html=1;strokeColor=none;fillColor=none;align=left;verticalAlign=top;spacingLeft=4;spacingRight=4;whiteSpace=wrap;overflow=hidden;rotatable=0;points=[[0,0.5],[1,0.5]];portConstraint=eastwest;fontFamily=font-family: &#39;Roboto&#39;, sans-serif;;fontSource=https%3A%2F%2Ffonts.googleapis.com%2Fcss%3Ffamily%3Dfont-family%253A%2B&#39;Roboto&#39;%252C%2Bsans-serif%253B;fontColor=#F7F7F7;rounded=1;" parent="7iV-3QqABHb4uCZC2DnF-56" vertex="1">
          <mxGeometry y="163" width="301" height="26" as="geometry" />
        </mxCell>
        <mxCell id="7iV-3QqABHb4uCZC2DnF-65" value="FIDELIDAD=0#CONCILIADA=0#TIENDAS=1.json&lt;br/&gt;" style="swimlane;html=1;fontStyle=1;align=center;verticalAlign=top;childLayout=stackLayout;horizontal=1;startSize=25;horizontalStack=0;resizeParent=1;resizeLast=0;collapsible=1;marginBottom=0;swimlaneFillColor=#4F7942;rounded=1;shadow=1;comic=0;labelBackgroundColor=none;strokeWidth=1;fillColor=#3F704D;fontFamily=font-family: &#39;Roboto&#39;, sans-serif;;fontSize=12;glass=0;fontSource=https%3A%2F%2Ffonts.googleapis.com%2Fcss%3Ffamily%3Dfont-family%253A%2B&#39;Roboto&#39;%252C%2Bsans-serif%253B;swimlaneLine=1;strokeColor=#3A5431;fontColor=#ffffff;" parent="1" vertex="1">
          <mxGeometry x="944" y="237" width="301" height="199" as="geometry" />
        </mxCell>
        <mxCell id="7iV-3QqABHb4uCZC2DnF-66" value="708 TXS" style="text;html=1;strokeColor=none;fillColor=none;align=left;verticalAlign=top;spacingLeft=4;spacingRight=4;whiteSpace=wrap;overflow=hidden;rotatable=0;points=[[0,0.5],[1,0.5]];portConstraint=eastwest;fontFamily=font-family: &#39;Roboto&#39;, sans-serif;;fontSource=https%3A%2F%2Ffonts.googleapis.com%2Fcss%3Ffamily%3Dfont-family%253A%2B&#39;Roboto&#39;%252C%2Bsans-serif%253B;fontColor=#F7F7F7;rounded=1;" parent="7iV-3QqABHb4uCZC2DnF-65" vertex="1">
          <mxGeometry y="25" width="301" height="26" as="geometry" />
        </mxCell>
        <mxCell id="7iV-3QqABHb4uCZC2DnF-67" value="" style="line;html=1;strokeWidth=1;fillColor=none;align=left;verticalAlign=middle;spacingTop=-1;spacingLeft=3;spacingRight=3;rotatable=0;labelPosition=right;points=[];portConstraint=eastwest;rounded=1;" parent="7iV-3QqABHb4uCZC2DnF-65" vertex="1">
          <mxGeometry y="51" width="301" height="8" as="geometry" />
        </mxCell>
        <mxCell id="7iV-3QqABHb4uCZC2DnF-68" value="FECHA LARGO 8" style="text;html=1;strokeColor=none;fillColor=none;align=left;verticalAlign=top;spacingLeft=4;spacingRight=4;whiteSpace=wrap;overflow=hidden;rotatable=0;points=[[0,0.5],[1,0.5]];portConstraint=eastwest;fontFamily=font-family: &#39;Roboto&#39;, sans-serif;;fontSource=https%3A%2F%2Ffonts.googleapis.com%2Fcss%3Ffamily%3Dfont-family%253A%2B&#39;Roboto&#39;%252C%2Bsans-serif%253B;fontColor=#F7F7F7;rounded=1;" parent="7iV-3QqABHb4uCZC2DnF-65" vertex="1">
          <mxGeometry y="59" width="301" height="26" as="geometry" />
        </mxCell>
        <mxCell id="7iV-3QqABHb4uCZC2DnF-69" value="COMERCIO=PRONTO" style="text;html=1;strokeColor=none;fillColor=none;align=left;verticalAlign=top;spacingLeft=4;spacingRight=4;whiteSpace=wrap;overflow=hidden;rotatable=0;points=[[0,0.5],[1,0.5]];portConstraint=eastwest;fontFamily=font-family: &#39;Roboto&#39;, sans-serif;;fontSource=https%3A%2F%2Ffonts.googleapis.com%2Fcss%3Ffamily%3Dfont-family%253A%2B&#39;Roboto&#39;%252C%2Bsans-serif%253B;fontColor=#F7F7F7;rounded=1;" parent="7iV-3QqABHb4uCZC2DnF-65" vertex="1">
          <mxGeometry y="85" width="301" height="26" as="geometry" />
        </mxCell>
        <mxCell id="7iV-3QqABHb4uCZC2DnF-70" value="SIN LOTE&lt;br&gt;" style="text;html=1;strokeColor=none;fillColor=none;align=left;verticalAlign=top;spacingLeft=4;spacingRight=4;whiteSpace=wrap;overflow=hidden;rotatable=0;points=[[0,0.5],[1,0.5]];portConstraint=eastwest;fontFamily=font-family: &#39;Roboto&#39;, sans-serif;;fontSource=https%3A%2F%2Ffonts.googleapis.com%2Fcss%3Ffamily%3Dfont-family%253A%2B&#39;Roboto&#39;%252C%2Bsans-serif%253B;fontColor=#F7F7F7;rounded=1;" parent="7iV-3QqABHb4uCZC2DnF-65" vertex="1">
          <mxGeometry y="111" width="301" height="26" as="geometry" />
        </mxCell>
        <mxCell id="7iV-3QqABHb4uCZC2DnF-71" value="MONTO_DESCUENTO &amp;gt; 0" style="text;html=1;strokeColor=none;fillColor=none;align=left;verticalAlign=top;spacingLeft=4;spacingRight=4;whiteSpace=wrap;overflow=hidden;rotatable=0;points=[[0,0.5],[1,0.5]];portConstraint=eastwest;fontFamily=font-family: &#39;Roboto&#39;, sans-serif;;fontSource=https%3A%2F%2Ffonts.googleapis.com%2Fcss%3Ffamily%3Dfont-family%253A%2B&#39;Roboto&#39;%252C%2Bsans-serif%253B;fontColor=#F7F7F7;rounded=1;" parent="7iV-3QqABHb4uCZC2DnF-65" vertex="1">
          <mxGeometry y="137" width="301" height="26" as="geometry" />
        </mxCell>
        <mxCell id="7iV-3QqABHb4uCZC2DnF-72" value="FIDELIDAD=0#CONCILIADA=0#TIENDAS=1&lt;br/&gt;&lt;br/&gt;" style="text;html=1;strokeColor=none;fillColor=none;align=left;verticalAlign=top;spacingLeft=4;spacingRight=4;whiteSpace=wrap;overflow=hidden;rotatable=0;points=[[0,0.5],[1,0.5]];portConstraint=eastwest;fontFamily=font-family: &#39;Roboto&#39;, sans-serif;;fontSource=https%3A%2F%2Ffonts.googleapis.com%2Fcss%3Ffamily%3Dfont-family%253A%2B&#39;Roboto&#39;%252C%2Bsans-serif%253B;fontColor=#F7F7F7;rounded=1;" parent="7iV-3QqABHb4uCZC2DnF-65" vertex="1">
          <mxGeometry y="163" width="301" height="26" as="geometry" />
        </mxCell>
        <mxCell id="7iV-3QqABHb4uCZC2DnF-73" value="FIDELIDAD=0#TIENDAS=1#CONCILIADA=0.json&lt;br&gt;&lt;br&gt;&lt;br/&gt;" style="swimlane;html=1;fontStyle=1;align=center;verticalAlign=top;childLayout=stackLayout;horizontal=1;startSize=25;horizontalStack=0;resizeParent=1;resizeLast=0;collapsible=1;marginBottom=0;swimlaneFillColor=#4F7942;rounded=1;shadow=1;comic=0;labelBackgroundColor=none;strokeWidth=1;fillColor=#3F704D;fontFamily=font-family: &#39;Roboto&#39;, sans-serif;;fontSize=12;glass=0;fontSource=https%3A%2F%2Ffonts.googleapis.com%2Fcss%3Ffamily%3Dfont-family%253A%2B&#39;Roboto&#39;%252C%2Bsans-serif%253B;swimlaneLine=1;strokeColor=#3A5431;fontColor=#ffffff;" parent="1" vertex="1">
          <mxGeometry x="1280" y="237" width="301" height="199" as="geometry" />
        </mxCell>
        <mxCell id="7iV-3QqABHb4uCZC2DnF-74" value="40.002 TXS" style="text;html=1;strokeColor=none;fillColor=none;align=left;verticalAlign=top;spacingLeft=4;spacingRight=4;whiteSpace=wrap;overflow=hidden;rotatable=0;points=[[0,0.5],[1,0.5]];portConstraint=eastwest;fontFamily=font-family: &#39;Roboto&#39;, sans-serif;;fontSource=https%3A%2F%2Ffonts.googleapis.com%2Fcss%3Ffamily%3Dfont-family%253A%2B&#39;Roboto&#39;%252C%2Bsans-serif%253B;fontColor=#F7F7F7;rounded=1;" parent="7iV-3QqABHb4uCZC2DnF-73" vertex="1">
          <mxGeometry y="25" width="301" height="26" as="geometry" />
        </mxCell>
        <mxCell id="7iV-3QqABHb4uCZC2DnF-75" value="" style="line;html=1;strokeWidth=1;fillColor=none;align=left;verticalAlign=middle;spacingTop=-1;spacingLeft=3;spacingRight=3;rotatable=0;labelPosition=right;points=[];portConstraint=eastwest;rounded=1;" parent="7iV-3QqABHb4uCZC2DnF-73" vertex="1">
          <mxGeometry y="51" width="301" height="8" as="geometry" />
        </mxCell>
        <mxCell id="7iV-3QqABHb4uCZC2DnF-76" value="FECHA LARGO 8" style="text;html=1;strokeColor=none;fillColor=none;align=left;verticalAlign=top;spacingLeft=4;spacingRight=4;whiteSpace=wrap;overflow=hidden;rotatable=0;points=[[0,0.5],[1,0.5]];portConstraint=eastwest;fontFamily=font-family: &#39;Roboto&#39;, sans-serif;;fontSource=https%3A%2F%2Ffonts.googleapis.com%2Fcss%3Ffamily%3Dfont-family%253A%2B&#39;Roboto&#39;%252C%2Bsans-serif%253B;fontColor=#F7F7F7;rounded=1;" parent="7iV-3QqABHb4uCZC2DnF-73" vertex="1">
          <mxGeometry y="59" width="301" height="26" as="geometry" />
        </mxCell>
        <mxCell id="7iV-3QqABHb4uCZC2DnF-77" value="COMERCIO=PRONTO" style="text;html=1;strokeColor=none;fillColor=none;align=left;verticalAlign=top;spacingLeft=4;spacingRight=4;whiteSpace=wrap;overflow=hidden;rotatable=0;points=[[0,0.5],[1,0.5]];portConstraint=eastwest;fontFamily=font-family: &#39;Roboto&#39;, sans-serif;;fontSource=https%3A%2F%2Ffonts.googleapis.com%2Fcss%3Ffamily%3Dfont-family%253A%2B&#39;Roboto&#39;%252C%2Bsans-serif%253B;fontColor=#F7F7F7;rounded=1;" parent="7iV-3QqABHb4uCZC2DnF-73" vertex="1">
          <mxGeometry y="85" width="301" height="26" as="geometry" />
        </mxCell>
        <mxCell id="7iV-3QqABHb4uCZC2DnF-78" value="SIN LOTE&lt;br&gt;" style="text;html=1;strokeColor=none;fillColor=none;align=left;verticalAlign=top;spacingLeft=4;spacingRight=4;whiteSpace=wrap;overflow=hidden;rotatable=0;points=[[0,0.5],[1,0.5]];portConstraint=eastwest;fontFamily=font-family: &#39;Roboto&#39;, sans-serif;;fontSource=https%3A%2F%2Ffonts.googleapis.com%2Fcss%3Ffamily%3Dfont-family%253A%2B&#39;Roboto&#39;%252C%2Bsans-serif%253B;fontColor=#F7F7F7;rounded=1;" parent="7iV-3QqABHb4uCZC2DnF-73" vertex="1">
          <mxGeometry y="111" width="301" height="26" as="geometry" />
        </mxCell>
        <mxCell id="7iV-3QqABHb4uCZC2DnF-79" value="MONTO_DESCUENTO &amp;gt; 0" style="text;html=1;strokeColor=none;fillColor=none;align=left;verticalAlign=top;spacingLeft=4;spacingRight=4;whiteSpace=wrap;overflow=hidden;rotatable=0;points=[[0,0.5],[1,0.5]];portConstraint=eastwest;fontFamily=font-family: &#39;Roboto&#39;, sans-serif;;fontSource=https%3A%2F%2Ffonts.googleapis.com%2Fcss%3Ffamily%3Dfont-family%253A%2B&#39;Roboto&#39;%252C%2Bsans-serif%253B;fontColor=#F7F7F7;rounded=1;" parent="7iV-3QqABHb4uCZC2DnF-73" vertex="1">
          <mxGeometry y="137" width="301" height="26" as="geometry" />
        </mxCell>
        <mxCell id="7iV-3QqABHb4uCZC2DnF-80" value="FIDELIDAD=0#TIENDAS=1#CONCILIADA=0&lt;br/&gt;&lt;br/&gt;" style="text;html=1;strokeColor=none;fillColor=none;align=left;verticalAlign=top;spacingLeft=4;spacingRight=4;whiteSpace=wrap;overflow=hidden;rotatable=0;points=[[0,0.5],[1,0.5]];portConstraint=eastwest;fontFamily=font-family: &#39;Roboto&#39;, sans-serif;;fontSource=https%3A%2F%2Ffonts.googleapis.com%2Fcss%3Ffamily%3Dfont-family%253A%2B&#39;Roboto&#39;%252C%2Bsans-serif%253B;fontColor=#F7F7F7;rounded=1;" parent="7iV-3QqABHb4uCZC2DnF-73" vertex="1">
          <mxGeometry y="163" width="301" height="26" as="geometry" />
        </mxCell>
        <mxCell id="7iV-3QqABHb4uCZC2DnF-81" value="CONCILIADA=0#TIENDAS=1#MUEVO=1#AUTORIZADOR=1#FIDELIDAD=0.json&lt;br/&gt;" style="swimlane;html=1;fontStyle=1;align=center;verticalAlign=top;childLayout=stackLayout;horizontal=1;startSize=25;horizontalStack=0;resizeParent=1;resizeLast=0;collapsible=1;marginBottom=0;swimlaneFillColor=#4F7942;rounded=1;shadow=1;comic=0;labelBackgroundColor=none;strokeWidth=1;fillColor=#3F704D;fontFamily=font-family: &#39;Roboto&#39;, sans-serif;;fontSize=12;glass=0;fontSource=https%3A%2F%2Ffonts.googleapis.com%2Fcss%3Ffamily%3Dfont-family%253A%2B&#39;Roboto&#39;%252C%2Bsans-serif%253B;swimlaneLine=1;strokeColor=#3A5431;fontColor=#ffffff;" parent="1" vertex="1">
          <mxGeometry x="1608" y="237" width="499" height="199" as="geometry" />
        </mxCell>
        <mxCell id="7iV-3QqABHb4uCZC2DnF-82" value="2 TXS" style="text;html=1;strokeColor=none;fillColor=none;align=left;verticalAlign=top;spacingLeft=4;spacingRight=4;whiteSpace=wrap;overflow=hidden;rotatable=0;points=[[0,0.5],[1,0.5]];portConstraint=eastwest;fontFamily=font-family: &#39;Roboto&#39;, sans-serif;;fontSource=https%3A%2F%2Ffonts.googleapis.com%2Fcss%3Ffamily%3Dfont-family%253A%2B&#39;Roboto&#39;%252C%2Bsans-serif%253B;fontColor=#F7F7F7;rounded=1;" parent="7iV-3QqABHb4uCZC2DnF-81" vertex="1">
          <mxGeometry y="25" width="499" height="26" as="geometry" />
        </mxCell>
        <mxCell id="7iV-3QqABHb4uCZC2DnF-83" value="" style="line;html=1;strokeWidth=1;fillColor=none;align=left;verticalAlign=middle;spacingTop=-1;spacingLeft=3;spacingRight=3;rotatable=0;labelPosition=right;points=[];portConstraint=eastwest;rounded=1;" parent="7iV-3QqABHb4uCZC2DnF-81" vertex="1">
          <mxGeometry y="51" width="499" height="8" as="geometry" />
        </mxCell>
        <mxCell id="7iV-3QqABHb4uCZC2DnF-84" value="FECHA LARGO 8" style="text;html=1;strokeColor=none;fillColor=none;align=left;verticalAlign=top;spacingLeft=4;spacingRight=4;whiteSpace=wrap;overflow=hidden;rotatable=0;points=[[0,0.5],[1,0.5]];portConstraint=eastwest;fontFamily=font-family: &#39;Roboto&#39;, sans-serif;;fontSource=https%3A%2F%2Ffonts.googleapis.com%2Fcss%3Ffamily%3Dfont-family%253A%2B&#39;Roboto&#39;%252C%2Bsans-serif%253B;fontColor=#F7F7F7;rounded=1;" parent="7iV-3QqABHb4uCZC2DnF-81" vertex="1">
          <mxGeometry y="59" width="499" height="26" as="geometry" />
        </mxCell>
        <mxCell id="7iV-3QqABHb4uCZC2DnF-85" value="COMERCIO=PRONTO" style="text;html=1;strokeColor=none;fillColor=none;align=left;verticalAlign=top;spacingLeft=4;spacingRight=4;whiteSpace=wrap;overflow=hidden;rotatable=0;points=[[0,0.5],[1,0.5]];portConstraint=eastwest;fontFamily=font-family: &#39;Roboto&#39;, sans-serif;;fontSource=https%3A%2F%2Ffonts.googleapis.com%2Fcss%3Ffamily%3Dfont-family%253A%2B&#39;Roboto&#39;%252C%2Bsans-serif%253B;fontColor=#F7F7F7;rounded=1;" parent="7iV-3QqABHb4uCZC2DnF-81" vertex="1">
          <mxGeometry y="85" width="499" height="26" as="geometry" />
        </mxCell>
        <mxCell id="7iV-3QqABHb4uCZC2DnF-86" value="SIN LOTE&lt;br&gt;" style="text;html=1;strokeColor=none;fillColor=none;align=left;verticalAlign=top;spacingLeft=4;spacingRight=4;whiteSpace=wrap;overflow=hidden;rotatable=0;points=[[0,0.5],[1,0.5]];portConstraint=eastwest;fontFamily=font-family: &#39;Roboto&#39;, sans-serif;;fontSource=https%3A%2F%2Ffonts.googleapis.com%2Fcss%3Ffamily%3Dfont-family%253A%2B&#39;Roboto&#39;%252C%2Bsans-serif%253B;fontColor=#F7F7F7;rounded=1;" parent="7iV-3QqABHb4uCZC2DnF-81" vertex="1">
          <mxGeometry y="111" width="499" height="26" as="geometry" />
        </mxCell>
        <mxCell id="7iV-3QqABHb4uCZC2DnF-87" value="MONTO_DESCUENTO &amp;gt; 0" style="text;html=1;strokeColor=none;fillColor=none;align=left;verticalAlign=top;spacingLeft=4;spacingRight=4;whiteSpace=wrap;overflow=hidden;rotatable=0;points=[[0,0.5],[1,0.5]];portConstraint=eastwest;fontFamily=font-family: &#39;Roboto&#39;, sans-serif;;fontSource=https%3A%2F%2Ffonts.googleapis.com%2Fcss%3Ffamily%3Dfont-family%253A%2B&#39;Roboto&#39;%252C%2Bsans-serif%253B;fontColor=#F7F7F7;rounded=1;" parent="7iV-3QqABHb4uCZC2DnF-81" vertex="1">
          <mxGeometry y="137" width="499" height="26" as="geometry" />
        </mxCell>
        <mxCell id="7iV-3QqABHb4uCZC2DnF-88" value="CONCILIADA=0#TIENDAS=1#MUEVO=1#AUTORIZADOR=1#FIDELIDAD=0&lt;br/&gt;&lt;br/&gt;" style="text;html=1;strokeColor=none;fillColor=none;align=left;verticalAlign=top;spacingLeft=4;spacingRight=4;whiteSpace=wrap;overflow=hidden;rotatable=0;points=[[0,0.5],[1,0.5]];portConstraint=eastwest;fontFamily=font-family: &#39;Roboto&#39;, sans-serif;;fontSource=https%3A%2F%2Ffonts.googleapis.com%2Fcss%3Ffamily%3Dfont-family%253A%2B&#39;Roboto&#39;%252C%2Bsans-serif%253B;fontColor=#F7F7F7;rounded=1;" parent="7iV-3QqABHb4uCZC2DnF-81" vertex="1">
          <mxGeometry y="163" width="499" height="26" as="geometry" />
        </mxCell>
        <mxCell id="7iV-3QqABHb4uCZC2DnF-89" value="FIDELIDAD=1#TIENDAS=1#CONCILIADA=1.json" style="swimlane;html=1;fontStyle=1;align=center;verticalAlign=top;childLayout=stackLayout;horizontal=1;startSize=25;horizontalStack=0;resizeParent=1;resizeLast=0;collapsible=1;marginBottom=0;swimlaneFillColor=#4F7942;rounded=1;shadow=1;comic=0;labelBackgroundColor=none;strokeWidth=1;fillColor=#3F704D;fontFamily=font-family: &#39;Roboto&#39;, sans-serif;;fontSize=12;glass=0;fontSource=https%3A%2F%2Ffonts.googleapis.com%2Fcss%3Ffamily%3Dfont-family%253A%2B&#39;Roboto&#39;%252C%2Bsans-serif%253B;swimlaneLine=1;strokeColor=#3A5431;fontColor=#ffffff;" parent="1" vertex="1">
          <mxGeometry x="2144" y="237" width="301" height="199" as="geometry" />
        </mxCell>
        <mxCell id="7iV-3QqABHb4uCZC2DnF-90" value="1.128 TXS" style="text;html=1;strokeColor=none;fillColor=none;align=left;verticalAlign=top;spacingLeft=4;spacingRight=4;whiteSpace=wrap;overflow=hidden;rotatable=0;points=[[0,0.5],[1,0.5]];portConstraint=eastwest;fontFamily=font-family: &#39;Roboto&#39;, sans-serif;;fontSource=https%3A%2F%2Ffonts.googleapis.com%2Fcss%3Ffamily%3Dfont-family%253A%2B&#39;Roboto&#39;%252C%2Bsans-serif%253B;fontColor=#F7F7F7;rounded=1;" parent="7iV-3QqABHb4uCZC2DnF-89" vertex="1">
          <mxGeometry y="25" width="301" height="26" as="geometry" />
        </mxCell>
        <mxCell id="7iV-3QqABHb4uCZC2DnF-91" value="" style="line;html=1;strokeWidth=1;fillColor=none;align=left;verticalAlign=middle;spacingTop=-1;spacingLeft=3;spacingRight=3;rotatable=0;labelPosition=right;points=[];portConstraint=eastwest;rounded=1;" parent="7iV-3QqABHb4uCZC2DnF-89" vertex="1">
          <mxGeometry y="51" width="301" height="8" as="geometry" />
        </mxCell>
        <mxCell id="7iV-3QqABHb4uCZC2DnF-92" value="FECHA LARGO 8" style="text;html=1;strokeColor=none;fillColor=none;align=left;verticalAlign=top;spacingLeft=4;spacingRight=4;whiteSpace=wrap;overflow=hidden;rotatable=0;points=[[0,0.5],[1,0.5]];portConstraint=eastwest;fontFamily=font-family: &#39;Roboto&#39;, sans-serif;;fontSource=https%3A%2F%2Ffonts.googleapis.com%2Fcss%3Ffamily%3Dfont-family%253A%2B&#39;Roboto&#39;%252C%2Bsans-serif%253B;fontColor=#F7F7F7;rounded=1;" parent="7iV-3QqABHb4uCZC2DnF-89" vertex="1">
          <mxGeometry y="59" width="301" height="26" as="geometry" />
        </mxCell>
        <mxCell id="7iV-3QqABHb4uCZC2DnF-93" value="COMERCIO=PRONTO" style="text;html=1;strokeColor=none;fillColor=none;align=left;verticalAlign=top;spacingLeft=4;spacingRight=4;whiteSpace=wrap;overflow=hidden;rotatable=0;points=[[0,0.5],[1,0.5]];portConstraint=eastwest;fontFamily=font-family: &#39;Roboto&#39;, sans-serif;;fontSource=https%3A%2F%2Ffonts.googleapis.com%2Fcss%3Ffamily%3Dfont-family%253A%2B&#39;Roboto&#39;%252C%2Bsans-serif%253B;fontColor=#F7F7F7;rounded=1;" parent="7iV-3QqABHb4uCZC2DnF-89" vertex="1">
          <mxGeometry y="85" width="301" height="26" as="geometry" />
        </mxCell>
        <mxCell id="7iV-3QqABHb4uCZC2DnF-94" value="SIN LOTE&lt;br&gt;" style="text;html=1;strokeColor=none;fillColor=none;align=left;verticalAlign=top;spacingLeft=4;spacingRight=4;whiteSpace=wrap;overflow=hidden;rotatable=0;points=[[0,0.5],[1,0.5]];portConstraint=eastwest;fontFamily=font-family: &#39;Roboto&#39;, sans-serif;;fontSource=https%3A%2F%2Ffonts.googleapis.com%2Fcss%3Ffamily%3Dfont-family%253A%2B&#39;Roboto&#39;%252C%2Bsans-serif%253B;fontColor=#F7F7F7;rounded=1;" parent="7iV-3QqABHb4uCZC2DnF-89" vertex="1">
          <mxGeometry y="111" width="301" height="26" as="geometry" />
        </mxCell>
        <mxCell id="7iV-3QqABHb4uCZC2DnF-95" value="MONTO_DESCUENTO &amp;gt; 0" style="text;html=1;strokeColor=none;fillColor=none;align=left;verticalAlign=top;spacingLeft=4;spacingRight=4;whiteSpace=wrap;overflow=hidden;rotatable=0;points=[[0,0.5],[1,0.5]];portConstraint=eastwest;fontFamily=font-family: &#39;Roboto&#39;, sans-serif;;fontSource=https%3A%2F%2Ffonts.googleapis.com%2Fcss%3Ffamily%3Dfont-family%253A%2B&#39;Roboto&#39;%252C%2Bsans-serif%253B;fontColor=#F7F7F7;rounded=1;" parent="7iV-3QqABHb4uCZC2DnF-89" vertex="1">
          <mxGeometry y="137" width="301" height="26" as="geometry" />
        </mxCell>
        <mxCell id="7iV-3QqABHb4uCZC2DnF-96" value="FIDELIDAD=1#TIENDAS=1#CONCILIADA=1" style="text;html=1;strokeColor=none;fillColor=none;align=left;verticalAlign=top;spacingLeft=4;spacingRight=4;whiteSpace=wrap;overflow=hidden;rotatable=0;points=[[0,0.5],[1,0.5]];portConstraint=eastwest;fontFamily=font-family: &#39;Roboto&#39;, sans-serif;;fontSource=https%3A%2F%2Ffonts.googleapis.com%2Fcss%3Ffamily%3Dfont-family%253A%2B&#39;Roboto&#39;%252C%2Bsans-serif%253B;fontColor=#F7F7F7;rounded=1;" parent="7iV-3QqABHb4uCZC2DnF-89" vertex="1">
          <mxGeometry y="163" width="301" height="26" as="geometry" />
        </mxCell>
        <mxCell id="7iV-3QqABHb4uCZC2DnF-138" style="edgeStyle=orthogonalEdgeStyle;rounded=0;orthogonalLoop=1;jettySize=auto;html=1;exitX=0.5;exitY=0;exitDx=0;exitDy=0;entryX=0.5;entryY=1;entryDx=0;entryDy=0;" parent="1" source="7iV-3QqABHb4uCZC2DnF-125" target="7iV-3QqABHb4uCZC2DnF-37" edge="1">
          <mxGeometry relative="1" as="geometry" />
        </mxCell>
        <mxCell id="7iV-3QqABHb4uCZC2DnF-125" value="&lt;font color=&quot;#000000&quot;&gt;transaccionesTotaldynamo.csv&lt;/font&gt;" style="swimlane;html=1;fontStyle=1;align=center;verticalAlign=top;childLayout=stackLayout;horizontal=1;startSize=26;horizontalStack=0;resizeParent=1;resizeLast=0;collapsible=1;marginBottom=0;swimlaneFillColor=#C3ABD0;rounded=1;shadow=1;comic=0;labelBackgroundColor=none;strokeWidth=1;fillColor=#AF99BA;fontFamily=font-family: &#39;Roboto&#39;, sans-serif;;fontSize=12;glass=0;fontSource=https%3A%2F%2Ffonts.googleapis.com%2Fcss%3Ffamily%3Dfont-family%253A%2B&#39;Roboto&#39;%252C%2Bsans-serif%253B;swimlaneLine=1;strokeColor=#3A5431;fontColor=#ffffff;" parent="1" vertex="1">
          <mxGeometry x="42" y="496" width="252" height="126" as="geometry" />
        </mxCell>
        <mxCell id="7iV-3QqABHb4uCZC2DnF-126" value="&lt;b&gt;69.555 TXS&lt;/b&gt;" style="text;html=1;strokeColor=none;fillColor=none;align=left;verticalAlign=top;spacingLeft=4;spacingRight=4;whiteSpace=wrap;overflow=hidden;rotatable=0;points=[[0,0.5],[1,0.5]];portConstraint=eastwest;fontFamily=font-family: &#39;Roboto&#39;, sans-serif;;fontSource=https%3A%2F%2Ffonts.googleapis.com%2Fcss%3Ffamily%3Dfont-family%253A%2B&#39;Roboto&#39;%252C%2Bsans-serif%253B;fontColor=#000000;rounded=1;" parent="7iV-3QqABHb4uCZC2DnF-125" vertex="1">
          <mxGeometry y="26" width="252" height="26" as="geometry" />
        </mxCell>
        <mxCell id="7iV-3QqABHb4uCZC2DnF-127" value="" style="line;html=1;strokeWidth=1;fillColor=none;align=left;verticalAlign=middle;spacingTop=-1;spacingLeft=3;spacingRight=3;rotatable=0;labelPosition=right;points=[];portConstraint=eastwest;rounded=1;" parent="7iV-3QqABHb4uCZC2DnF-125" vertex="1">
          <mxGeometry y="52" width="252" height="8" as="geometry" />
        </mxCell>
        <mxCell id="7iV-3QqABHb4uCZC2DnF-140" value="&lt;b&gt;69 528 TXS FIDELIDAD=0#CONCILIADA=0&amp;nbsp;&lt;br&gt;&lt;br&gt;&lt;/b&gt;" style="text;html=1;strokeColor=none;fillColor=none;align=left;verticalAlign=top;spacingLeft=4;spacingRight=4;whiteSpace=wrap;overflow=hidden;rotatable=0;points=[[0,0.5],[1,0.5]];portConstraint=eastwest;fontFamily=font-family: &#39;Roboto&#39;, sans-serif;;fontSource=https%3A%2F%2Ffonts.googleapis.com%2Fcss%3Ffamily%3Dfont-family%253A%2B&#39;Roboto&#39;%252C%2Bsans-serif%253B;fontColor=#000000;rounded=1;" parent="7iV-3QqABHb4uCZC2DnF-125" vertex="1">
          <mxGeometry y="60" width="252" height="24" as="geometry" />
        </mxCell>
        <mxCell id="7iV-3QqABHb4uCZC2DnF-143" value="&lt;b style=&quot;border-color: var(--border-color);&quot;&gt;37 TXS CONCILIADA=0&amp;nbsp;&lt;/b&gt;&lt;b&gt;&lt;br&gt;&lt;/b&gt;" style="text;html=1;strokeColor=none;fillColor=none;align=left;verticalAlign=top;spacingLeft=4;spacingRight=4;whiteSpace=wrap;overflow=hidden;rotatable=0;points=[[0,0.5],[1,0.5]];portConstraint=eastwest;fontFamily=font-family: &#39;Roboto&#39;, sans-serif;;fontSource=https%3A%2F%2Ffonts.googleapis.com%2Fcss%3Ffamily%3Dfont-family%253A%2B&#39;Roboto&#39;%252C%2Bsans-serif%253B;fontColor=#000000;rounded=1;" parent="7iV-3QqABHb4uCZC2DnF-125" vertex="1">
          <mxGeometry y="84" width="252" height="36" as="geometry" />
        </mxCell>
        <mxCell id="7iV-3QqABHb4uCZC2DnF-166" style="edgeStyle=orthogonalEdgeStyle;rounded=0;orthogonalLoop=1;jettySize=auto;html=1;exitX=0.5;exitY=1;exitDx=0;exitDy=0;entryX=0.533;entryY=0;entryDx=0;entryDy=0;entryPerimeter=0;" parent="1" source="7iV-3QqABHb4uCZC2DnF-144" target="7iV-3QqABHb4uCZC2DnF-154" edge="1">
          <mxGeometry relative="1" as="geometry" />
        </mxCell>
        <mxCell id="7iV-3QqABHb4uCZC2DnF-167" style="edgeStyle=orthogonalEdgeStyle;rounded=0;orthogonalLoop=1;jettySize=auto;html=1;exitX=0.5;exitY=1;exitDx=0;exitDy=0;entryX=0.5;entryY=0;entryDx=0;entryDy=0;" parent="1" source="7iV-3QqABHb4uCZC2DnF-144" target="7iV-3QqABHb4uCZC2DnF-149" edge="1">
          <mxGeometry relative="1" as="geometry" />
        </mxCell>
        <mxCell id="7iV-3QqABHb4uCZC2DnF-171" style="edgeStyle=orthogonalEdgeStyle;rounded=0;orthogonalLoop=1;jettySize=auto;html=1;exitX=0.5;exitY=1;exitDx=0;exitDy=0;entryX=0;entryY=0.5;entryDx=0;entryDy=0;" parent="1" edge="1">
          <mxGeometry relative="1" as="geometry">
            <mxPoint x="-497" y="361.75" as="sourcePoint" />
            <mxPoint x="40.5" y="568" as="targetPoint" />
            <Array as="points">
              <mxPoint x="-496.5" y="430" />
              <mxPoint x="13.5" y="430" />
              <mxPoint x="13.5" y="568" />
            </Array>
          </mxGeometry>
        </mxCell>
        <mxCell id="7iV-3QqABHb4uCZC2DnF-144" value="&lt;font color=&quot;#000000&quot;&gt;Listado de Transacciones sin Cruce 2023.xlsx&lt;/font&gt;" style="swimlane;html=1;fontStyle=1;align=center;verticalAlign=top;childLayout=stackLayout;horizontal=1;startSize=26;horizontalStack=0;resizeParent=1;resizeLast=0;collapsible=1;marginBottom=0;swimlaneFillColor=#C3ABD0;rounded=1;shadow=1;comic=0;labelBackgroundColor=none;strokeWidth=1;fillColor=#AF99BA;fontFamily=font-family: &#39;Roboto&#39;, sans-serif;;fontSize=12;glass=0;fontSource=https%3A%2F%2Ffonts.googleapis.com%2Fcss%3Ffamily%3Dfont-family%253A%2B&#39;Roboto&#39;%252C%2Bsans-serif%253B;swimlaneLine=1;strokeColor=#3A5431;fontColor=#ffffff;" parent="1" vertex="1">
          <mxGeometry x="-627" y="300.25" width="263" height="61.5" as="geometry" />
        </mxCell>
        <mxCell id="7iV-3QqABHb4uCZC2DnF-145" value="&lt;b&gt;370.074 TXS&lt;/b&gt;" style="text;html=1;strokeColor=none;fillColor=none;align=left;verticalAlign=top;spacingLeft=4;spacingRight=4;whiteSpace=wrap;overflow=hidden;rotatable=0;points=[[0,0.5],[1,0.5]];portConstraint=eastwest;fontFamily=font-family: &#39;Roboto&#39;, sans-serif;;fontSource=https%3A%2F%2Ffonts.googleapis.com%2Fcss%3Ffamily%3Dfont-family%253A%2B&#39;Roboto&#39;%252C%2Bsans-serif%253B;fontColor=#000000;rounded=1;" parent="7iV-3QqABHb4uCZC2DnF-144" vertex="1">
          <mxGeometry y="26" width="263" height="26" as="geometry" />
        </mxCell>
        <mxCell id="7iV-3QqABHb4uCZC2DnF-149" value="&lt;font color=&quot;#000000&quot;&gt;REPORTE TXS LOTE 28-08 final NA ARCOPRIME.csv&lt;/font&gt;" style="swimlane;html=1;fontStyle=1;align=center;verticalAlign=top;childLayout=stackLayout;horizontal=1;startSize=26;horizontalStack=0;resizeParent=1;resizeLast=0;collapsible=1;marginBottom=0;swimlaneFillColor=#C3ABD0;rounded=1;shadow=1;comic=0;labelBackgroundColor=none;strokeWidth=1;fillColor=#AF99BA;fontFamily=font-family: &#39;Roboto&#39;, sans-serif;;fontSize=12;glass=0;fontSource=https%3A%2F%2Ffonts.googleapis.com%2Fcss%3Ffamily%3Dfont-family%253A%2B&#39;Roboto&#39;%252C%2Bsans-serif%253B;swimlaneLine=1;strokeColor=#3A5431;fontColor=#ffffff;" parent="1" vertex="1">
          <mxGeometry x="-319" y="496" width="307" height="126" as="geometry" />
        </mxCell>
        <mxCell id="7iV-3QqABHb4uCZC2DnF-150" value="&lt;b&gt;151.678 TXS&lt;/b&gt;" style="text;html=1;strokeColor=none;fillColor=none;align=left;verticalAlign=top;spacingLeft=4;spacingRight=4;whiteSpace=wrap;overflow=hidden;rotatable=0;points=[[0,0.5],[1,0.5]];portConstraint=eastwest;fontFamily=font-family: &#39;Roboto&#39;, sans-serif;;fontSource=https%3A%2F%2Ffonts.googleapis.com%2Fcss%3Ffamily%3Dfont-family%253A%2B&#39;Roboto&#39;%252C%2Bsans-serif%253B;fontColor=#000000;rounded=1;" parent="7iV-3QqABHb4uCZC2DnF-149" vertex="1">
          <mxGeometry y="26" width="307" height="26" as="geometry" />
        </mxCell>
        <mxCell id="7iV-3QqABHb4uCZC2DnF-151" value="" style="line;html=1;strokeWidth=1;fillColor=none;align=left;verticalAlign=middle;spacingTop=-1;spacingLeft=3;spacingRight=3;rotatable=0;labelPosition=right;points=[];portConstraint=eastwest;rounded=1;" parent="7iV-3QqABHb4uCZC2DnF-149" vertex="1">
          <mxGeometry y="52" width="307" height="8" as="geometry" />
        </mxCell>
        <mxCell id="7iV-3QqABHb4uCZC2DnF-152" value="&lt;b&gt;LOTE NA QUE SE MANDARON A PAGAR&lt;br&gt;&lt;/b&gt;" style="text;html=1;strokeColor=none;fillColor=none;align=left;verticalAlign=top;spacingLeft=4;spacingRight=4;whiteSpace=wrap;overflow=hidden;rotatable=0;points=[[0,0.5],[1,0.5]];portConstraint=eastwest;fontFamily=font-family: &#39;Roboto&#39;, sans-serif;;fontSource=https%3A%2F%2Ffonts.googleapis.com%2Fcss%3Ffamily%3Dfont-family%253A%2B&#39;Roboto&#39;%252C%2Bsans-serif%253B;fontColor=#000000;rounded=1;" parent="7iV-3QqABHb4uCZC2DnF-149" vertex="1">
          <mxGeometry y="60" width="307" height="24" as="geometry" />
        </mxCell>
        <mxCell id="7iV-3QqABHb4uCZC2DnF-153" value="&lt;b&gt;&lt;br&gt;&lt;/b&gt;" style="text;html=1;strokeColor=none;fillColor=none;align=left;verticalAlign=top;spacingLeft=4;spacingRight=4;whiteSpace=wrap;overflow=hidden;rotatable=0;points=[[0,0.5],[1,0.5]];portConstraint=eastwest;fontFamily=font-family: &#39;Roboto&#39;, sans-serif;;fontSource=https%3A%2F%2Ffonts.googleapis.com%2Fcss%3Ffamily%3Dfont-family%253A%2B&#39;Roboto&#39;%252C%2Bsans-serif%253B;fontColor=#000000;rounded=1;" parent="7iV-3QqABHb4uCZC2DnF-149" vertex="1">
          <mxGeometry y="84" width="307" height="36" as="geometry" />
        </mxCell>
        <mxCell id="7iV-3QqABHb4uCZC2DnF-154" value="&lt;font color=&quot;#000000&quot;&gt;NO ENCONTRADAS EN NINGUN PROCESO.csv&lt;/font&gt;" style="swimlane;html=1;fontStyle=1;align=center;verticalAlign=top;childLayout=stackLayout;horizontal=1;startSize=26;horizontalStack=0;resizeParent=1;resizeLast=0;collapsible=1;marginBottom=0;swimlaneFillColor=#C3ABD0;rounded=1;shadow=1;comic=0;labelBackgroundColor=none;strokeWidth=1;fillColor=#AF99BA;fontFamily=font-family: &#39;Roboto&#39;, sans-serif;;fontSize=12;glass=0;fontSource=https%3A%2F%2Ffonts.googleapis.com%2Fcss%3Ffamily%3Dfont-family%253A%2B&#39;Roboto&#39;%252C%2Bsans-serif%253B;swimlaneLine=1;strokeColor=#3A5431;fontColor=#ffffff;" parent="1" vertex="1">
          <mxGeometry x="-642" y="496" width="276" height="126" as="geometry" />
        </mxCell>
        <mxCell id="7iV-3QqABHb4uCZC2DnF-155" value="&lt;b&gt;2.849 TXS&lt;/b&gt;" style="text;html=1;strokeColor=none;fillColor=none;align=left;verticalAlign=top;spacingLeft=4;spacingRight=4;whiteSpace=wrap;overflow=hidden;rotatable=0;points=[[0,0.5],[1,0.5]];portConstraint=eastwest;fontFamily=font-family: &#39;Roboto&#39;, sans-serif;;fontSource=https%3A%2F%2Ffonts.googleapis.com%2Fcss%3Ffamily%3Dfont-family%253A%2B&#39;Roboto&#39;%252C%2Bsans-serif%253B;fontColor=#000000;rounded=1;" parent="7iV-3QqABHb4uCZC2DnF-154" vertex="1">
          <mxGeometry y="26" width="276" height="26" as="geometry" />
        </mxCell>
        <mxCell id="7iV-3QqABHb4uCZC2DnF-156" value="" style="line;html=1;strokeWidth=1;fillColor=none;align=left;verticalAlign=middle;spacingTop=-1;spacingLeft=3;spacingRight=3;rotatable=0;labelPosition=right;points=[];portConstraint=eastwest;rounded=1;" parent="7iV-3QqABHb4uCZC2DnF-154" vertex="1">
          <mxGeometry y="52" width="276" height="8" as="geometry" />
        </mxCell>
        <mxCell id="7iV-3QqABHb4uCZC2DnF-158" value="&lt;b style=&quot;border-color: var(--border-color);&quot;&gt;NO ESTAN EN NINGUNA BASE DE DATOS&lt;/b&gt;&lt;b&gt;&lt;br&gt;&lt;/b&gt;" style="text;html=1;strokeColor=none;fillColor=none;align=left;verticalAlign=top;spacingLeft=4;spacingRight=4;whiteSpace=wrap;overflow=hidden;rotatable=0;points=[[0,0.5],[1,0.5]];portConstraint=eastwest;fontFamily=font-family: &#39;Roboto&#39;, sans-serif;;fontSource=https%3A%2F%2Ffonts.googleapis.com%2Fcss%3Ffamily%3Dfont-family%253A%2B&#39;Roboto&#39;%252C%2Bsans-serif%253B;fontColor=#000000;rounded=1;" parent="7iV-3QqABHb4uCZC2DnF-154" vertex="1">
          <mxGeometry y="60" width="276" height="36" as="geometry" />
        </mxCell>
        <mxCell id="7iV-3QqABHb4uCZC2DnF-160" value="&lt;font color=&quot;#000000&quot;&gt;REPORTE TXS PAGADAS ARCOPRIME FINAL.csv&lt;/font&gt;" style="swimlane;html=1;fontStyle=1;align=center;verticalAlign=top;childLayout=stackLayout;horizontal=1;startSize=26;horizontalStack=0;resizeParent=1;resizeLast=0;collapsible=1;marginBottom=0;swimlaneFillColor=#C3ABD0;rounded=1;shadow=1;comic=0;labelBackgroundColor=none;strokeWidth=1;fillColor=#AF99BA;fontFamily=font-family: &#39;Roboto&#39;, sans-serif;;fontSize=12;glass=0;fontSource=https%3A%2F%2Ffonts.googleapis.com%2Fcss%3Ffamily%3Dfont-family%253A%2B&#39;Roboto&#39;%252C%2Bsans-serif%253B;swimlaneLine=1;strokeColor=#3A5431;fontColor=#ffffff;" parent="1" vertex="1">
          <mxGeometry x="-303" y="268" width="284" height="126" as="geometry" />
        </mxCell>
        <mxCell id="7iV-3QqABHb4uCZC2DnF-161" value="&lt;b&gt;146.706 TXS&lt;/b&gt;" style="text;html=1;strokeColor=none;fillColor=none;align=left;verticalAlign=top;spacingLeft=4;spacingRight=4;whiteSpace=wrap;overflow=hidden;rotatable=0;points=[[0,0.5],[1,0.5]];portConstraint=eastwest;fontFamily=font-family: &#39;Roboto&#39;, sans-serif;;fontSource=https%3A%2F%2Ffonts.googleapis.com%2Fcss%3Ffamily%3Dfont-family%253A%2B&#39;Roboto&#39;%252C%2Bsans-serif%253B;fontColor=#000000;rounded=1;" parent="7iV-3QqABHb4uCZC2DnF-160" vertex="1">
          <mxGeometry y="26" width="284" height="26" as="geometry" />
        </mxCell>
        <mxCell id="7iV-3QqABHb4uCZC2DnF-162" value="" style="line;html=1;strokeWidth=1;fillColor=none;align=left;verticalAlign=middle;spacingTop=-1;spacingLeft=3;spacingRight=3;rotatable=0;labelPosition=right;points=[];portConstraint=eastwest;rounded=1;" parent="7iV-3QqABHb4uCZC2DnF-160" vertex="1">
          <mxGeometry y="52" width="284" height="8" as="geometry" />
        </mxCell>
        <mxCell id="7iV-3QqABHb4uCZC2DnF-163" value="&lt;b&gt;TXS PAGADAS&lt;br&gt;&lt;/b&gt;" style="text;html=1;strokeColor=none;fillColor=none;align=left;verticalAlign=top;spacingLeft=4;spacingRight=4;whiteSpace=wrap;overflow=hidden;rotatable=0;points=[[0,0.5],[1,0.5]];portConstraint=eastwest;fontFamily=font-family: &#39;Roboto&#39;, sans-serif;;fontSource=https%3A%2F%2Ffonts.googleapis.com%2Fcss%3Ffamily%3Dfont-family%253A%2B&#39;Roboto&#39;%252C%2Bsans-serif%253B;fontColor=#000000;rounded=1;" parent="7iV-3QqABHb4uCZC2DnF-160" vertex="1">
          <mxGeometry y="60" width="284" height="24" as="geometry" />
        </mxCell>
        <mxCell id="7iV-3QqABHb4uCZC2DnF-164" value="&lt;b style=&quot;border-color: var(--border-color);&quot;&gt;CON DocFI&lt;/b&gt;&lt;b&gt;&lt;br&gt;&lt;/b&gt;" style="text;html=1;strokeColor=none;fillColor=none;align=left;verticalAlign=top;spacingLeft=4;spacingRight=4;whiteSpace=wrap;overflow=hidden;rotatable=0;points=[[0,0.5],[1,0.5]];portConstraint=eastwest;fontFamily=font-family: &#39;Roboto&#39;, sans-serif;;fontSource=https%3A%2F%2Ffonts.googleapis.com%2Fcss%3Ffamily%3Dfont-family%253A%2B&#39;Roboto&#39;%252C%2Bsans-serif%253B;fontColor=#000000;rounded=1;" parent="7iV-3QqABHb4uCZC2DnF-160" vertex="1">
          <mxGeometry y="84" width="284" height="36" as="geometry" />
        </mxCell>
        <mxCell id="7iV-3QqABHb4uCZC2DnF-165" style="edgeStyle=orthogonalEdgeStyle;rounded=0;orthogonalLoop=1;jettySize=auto;html=1;exitX=1;exitY=0.5;exitDx=0;exitDy=0;" parent="1" source="7iV-3QqABHb4uCZC2DnF-145" target="7iV-3QqABHb4uCZC2DnF-163" edge="1">
          <mxGeometry relative="1" as="geometry" />
        </mxCell>
        <mxCell id="J-LmvbUVMUolAhHK-LNw-1" value="&lt;b&gt;&lt;font style=&quot;font-size: 17px;&quot;&gt;SE INSERTO EN QA&lt;/font&gt;&lt;/b&gt;" style="ellipse;shape=umlControl;whiteSpace=wrap;html=1;fillColor=#FF9999;" parent="1" vertex="1">
          <mxGeometry x="366" y="490.5" width="140" height="155" as="geometry" />
        </mxCell>
        <mxCell id="J-LmvbUVMUolAhHK-LNw-2" style="edgeStyle=orthogonalEdgeStyle;rounded=0;orthogonalLoop=1;jettySize=auto;html=1;exitX=1;exitY=0.5;exitDx=0;exitDy=0;" parent="1" source="7iV-3QqABHb4uCZC2DnF-140" target="J-LmvbUVMUolAhHK-LNw-1" edge="1">
          <mxGeometry relative="1" as="geometry">
            <mxPoint x="335" y="585.5" as="sourcePoint" />
          </mxGeometry>
        </mxCell>
        <mxCell id="sCa3DOTSbb0t7PZyeonU-1" value="&lt;span style=&quot;font-size: 17px;&quot;&gt;&lt;b&gt;CAMBIAR FECHA&amp;nbsp;&lt;/b&gt;&lt;/span&gt;" style="ellipse;shape=umlControl;whiteSpace=wrap;html=1;fillColor=#FF9999;" parent="1" vertex="1">
          <mxGeometry x="690.5" y="532" width="140" height="155" as="geometry" />
        </mxCell>
        <mxCell id="XCZEjChv1KdmmRgAdbkG-15" style="edgeStyle=orthogonalEdgeStyle;rounded=0;orthogonalLoop=1;jettySize=auto;html=1;exitX=0;exitY=0.75;exitDx=0;exitDy=0;entryX=1;entryY=0.5;entryDx=0;entryDy=0;" edge="1" parent="1" source="1mWBqxpM2r-LrcwGqkgM-1" target="7iV-3QqABHb4uCZC2DnF-25">
          <mxGeometry relative="1" as="geometry" />
        </mxCell>
        <mxCell id="1mWBqxpM2r-LrcwGqkgM-1" value="563KEN NEW.csv" style="swimlane;html=1;fontStyle=1;align=center;verticalAlign=top;childLayout=stackLayout;horizontal=1;startSize=26;horizontalStack=0;resizeParent=1;resizeLast=0;collapsible=1;marginBottom=0;swimlaneFillColor=#366E79;rounded=1;shadow=1;comic=0;labelBackgroundColor=none;strokeWidth=1;fillColor=#0D5070;fontFamily=font-family: &#39;Roboto&#39;, sans-serif;;fontSize=12;glass=0;fontSource=https%3A%2F%2Ffonts.googleapis.com%2Fcss%3Ffamily%3Dfont-family%253A%2B&#39;Roboto&#39;%252C%2Bsans-serif%253B;swimlaneLine=1;strokeColor=#006EAF;fontColor=#ffffff;" parent="1" vertex="1">
          <mxGeometry x="1422" y="17" width="207" height="166" as="geometry" />
        </mxCell>
        <mxCell id="1mWBqxpM2r-LrcwGqkgM-2" value="&lt;b&gt;95.226 TXS&lt;/b&gt;" style="text;html=1;strokeColor=none;fillColor=none;align=left;verticalAlign=top;spacingLeft=4;spacingRight=4;whiteSpace=wrap;overflow=hidden;rotatable=0;points=[[0,0.5],[1,0.5]];portConstraint=eastwest;fontFamily=font-family: &#39;Roboto&#39;, sans-serif;;fontSource=https%3A%2F%2Ffonts.googleapis.com%2Fcss%3Ffamily%3Dfont-family%253A%2B&#39;Roboto&#39;%252C%2Bsans-serif%253B;fontColor=#F7F7F7;rounded=1;" parent="1mWBqxpM2r-LrcwGqkgM-1" vertex="1">
          <mxGeometry y="26" width="207" height="26" as="geometry" />
        </mxCell>
        <mxCell id="1mWBqxpM2r-LrcwGqkgM-3" value="" style="line;html=1;strokeWidth=1;fillColor=none;align=left;verticalAlign=middle;spacingTop=-1;spacingLeft=3;spacingRight=3;rotatable=0;labelPosition=right;points=[];portConstraint=eastwest;rounded=1;" parent="1mWBqxpM2r-LrcwGqkgM-1" vertex="1">
          <mxGeometry y="52" width="207" height="8" as="geometry" />
        </mxCell>
        <mxCell id="1mWBqxpM2r-LrcwGqkgM-8" value="&lt;b&gt;Todas tienen DocFi&lt;/b&gt;" style="text;html=1;strokeColor=none;fillColor=none;align=left;verticalAlign=top;spacingLeft=4;spacingRight=4;whiteSpace=wrap;overflow=hidden;rotatable=0;points=[[0,0.5],[1,0.5]];portConstraint=eastwest;fontFamily=font-family: &#39;Roboto&#39;, sans-serif;;fontSource=https%3A%2F%2Ffonts.googleapis.com%2Fcss%3Ffamily%3Dfont-family%253A%2B&#39;Roboto&#39;%252C%2Bsans-serif%253B;fontColor=#F7F7F7;rounded=1;" parent="1mWBqxpM2r-LrcwGqkgM-1" vertex="1">
          <mxGeometry y="60" width="207" height="26" as="geometry" />
        </mxCell>
        <mxCell id="XCZEjChv1KdmmRgAdbkG-13" style="edgeStyle=orthogonalEdgeStyle;rounded=0;orthogonalLoop=1;jettySize=auto;html=1;exitX=0.5;exitY=1;exitDx=0;exitDy=0;entryX=0.5;entryY=0;entryDx=0;entryDy=0;" edge="1" parent="1" source="1mWBqxpM2r-LrcwGqkgM-15" target="1mWBqxpM2r-LrcwGqkgM-1">
          <mxGeometry relative="1" as="geometry">
            <mxPoint x="1323.1428571428573" y="25.71428571428578" as="targetPoint" />
            <Array as="points">
              <mxPoint x="190" y="-20" />
              <mxPoint x="1465" y="-20" />
            </Array>
          </mxGeometry>
        </mxCell>
        <mxCell id="1mWBqxpM2r-LrcwGqkgM-15" value="datos_filtrados_nuevos.json" style="swimlane;html=1;fontStyle=1;align=center;verticalAlign=top;childLayout=stackLayout;horizontal=1;startSize=26;horizontalStack=0;resizeParent=1;resizeLast=0;collapsible=1;marginBottom=0;swimlaneFillColor=#366E79;rounded=1;shadow=1;comic=0;labelBackgroundColor=none;strokeWidth=1;fillColor=#0D5070;fontFamily=font-family: &#39;Roboto&#39;, sans-serif;;fontSize=12;glass=0;fontSource=https%3A%2F%2Ffonts.googleapis.com%2Fcss%3Ffamily%3Dfont-family%253A%2B&#39;Roboto&#39;%252C%2Bsans-serif%253B;swimlaneLine=1;strokeColor=#006EAF;fontColor=#ffffff;" parent="1" vertex="1">
          <mxGeometry x="86" y="-540" width="207" height="182" as="geometry" />
        </mxCell>
        <mxCell id="1mWBqxpM2r-LrcwGqkgM-16" value="&lt;b&gt;468.413 TXS&lt;/b&gt;" style="text;html=1;strokeColor=none;fillColor=none;align=left;verticalAlign=top;spacingLeft=4;spacingRight=4;whiteSpace=wrap;overflow=hidden;rotatable=0;points=[[0,0.5],[1,0.5]];portConstraint=eastwest;fontFamily=font-family: &#39;Roboto&#39;, sans-serif;;fontSource=https%3A%2F%2Ffonts.googleapis.com%2Fcss%3Ffamily%3Dfont-family%253A%2B&#39;Roboto&#39;%252C%2Bsans-serif%253B;fontColor=#F7F7F7;rounded=1;" parent="1mWBqxpM2r-LrcwGqkgM-15" vertex="1">
          <mxGeometry y="26" width="207" height="26" as="geometry" />
        </mxCell>
        <mxCell id="1mWBqxpM2r-LrcwGqkgM-17" value="" style="line;html=1;strokeWidth=1;fillColor=none;align=left;verticalAlign=middle;spacingTop=-1;spacingLeft=3;spacingRight=3;rotatable=0;labelPosition=right;points=[];portConstraint=eastwest;rounded=1;" parent="1mWBqxpM2r-LrcwGqkgM-15" vertex="1">
          <mxGeometry y="52" width="207" height="8" as="geometry" />
        </mxCell>
        <mxCell id="1mWBqxpM2r-LrcwGqkgM-30" value="FECHA LARGO 8" style="text;html=1;strokeColor=none;fillColor=none;align=left;verticalAlign=top;spacingLeft=4;spacingRight=4;whiteSpace=wrap;overflow=hidden;rotatable=0;points=[[0,0.5],[1,0.5]];portConstraint=eastwest;fontFamily=font-family: &#39;Roboto&#39;, sans-serif;;fontSource=https%3A%2F%2Ffonts.googleapis.com%2Fcss%3Ffamily%3Dfont-family%253A%2B&#39;Roboto&#39;%252C%2Bsans-serif%253B;fontColor=#F7F7F7;rounded=1;" parent="1mWBqxpM2r-LrcwGqkgM-15" vertex="1">
          <mxGeometry y="60" width="207" height="26" as="geometry" />
        </mxCell>
        <mxCell id="1mWBqxpM2r-LrcwGqkgM-29" value="COMERCIO=PRONTO" style="text;html=1;strokeColor=none;fillColor=none;align=left;verticalAlign=top;spacingLeft=4;spacingRight=4;whiteSpace=wrap;overflow=hidden;rotatable=0;points=[[0,0.5],[1,0.5]];portConstraint=eastwest;fontFamily=font-family: &#39;Roboto&#39;, sans-serif;;fontSource=https%3A%2F%2Ffonts.googleapis.com%2Fcss%3Ffamily%3Dfont-family%253A%2B&#39;Roboto&#39;%252C%2Bsans-serif%253B;fontColor=#F7F7F7;rounded=1;" parent="1mWBqxpM2r-LrcwGqkgM-15" vertex="1">
          <mxGeometry y="86" width="207" height="26" as="geometry" />
        </mxCell>
        <mxCell id="1mWBqxpM2r-LrcwGqkgM-28" value="SIN LOTE&lt;br&gt;" style="text;html=1;strokeColor=none;fillColor=none;align=left;verticalAlign=top;spacingLeft=4;spacingRight=4;whiteSpace=wrap;overflow=hidden;rotatable=0;points=[[0,0.5],[1,0.5]];portConstraint=eastwest;fontFamily=font-family: &#39;Roboto&#39;, sans-serif;;fontSource=https%3A%2F%2Ffonts.googleapis.com%2Fcss%3Ffamily%3Dfont-family%253A%2B&#39;Roboto&#39;%252C%2Bsans-serif%253B;fontColor=#F7F7F7;rounded=1;" parent="1mWBqxpM2r-LrcwGqkgM-15" vertex="1">
          <mxGeometry y="112" width="207" height="26" as="geometry" />
        </mxCell>
        <mxCell id="1mWBqxpM2r-LrcwGqkgM-27" value="MONTO_DESCUENTO &amp;gt; 0" style="text;html=1;strokeColor=none;fillColor=none;align=left;verticalAlign=top;spacingLeft=4;spacingRight=4;whiteSpace=wrap;overflow=hidden;rotatable=0;points=[[0,0.5],[1,0.5]];portConstraint=eastwest;fontFamily=font-family: &#39;Roboto&#39;, sans-serif;;fontSource=https%3A%2F%2Ffonts.googleapis.com%2Fcss%3Ffamily%3Dfont-family%253A%2B&#39;Roboto&#39;%252C%2Bsans-serif%253B;fontColor=#F7F7F7;rounded=1;" parent="1mWBqxpM2r-LrcwGqkgM-15" vertex="1">
          <mxGeometry y="138" width="207" height="26" as="geometry" />
        </mxCell>
        <mxCell id="1mWBqxpM2r-LrcwGqkgM-37" value="FIDELIDAD=0#TIENDAS=1#CONCILIADA=0_new.json" style="swimlane;html=1;fontStyle=1;align=center;verticalAlign=top;childLayout=stackLayout;horizontal=1;startSize=26;horizontalStack=0;resizeParent=1;resizeLast=0;collapsible=1;marginBottom=0;swimlaneFillColor=#366E79;rounded=1;shadow=1;comic=0;labelBackgroundColor=none;strokeWidth=1;fillColor=#0D5070;fontFamily=font-family: &#39;Roboto&#39;, sans-serif;;fontSize=12;glass=0;fontSource=https%3A%2F%2Ffonts.googleapis.com%2Fcss%3Ffamily%3Dfont-family%253A%2B&#39;Roboto&#39;%252C%2Bsans-serif%253B;swimlaneLine=1;strokeColor=#006EAF;fontColor=#ffffff;" parent="1" vertex="1">
          <mxGeometry x="427" y="-845" width="338" height="196" as="geometry" />
        </mxCell>
        <mxCell id="1mWBqxpM2r-LrcwGqkgM-38" value="&lt;b&gt;2 TXS&lt;/b&gt;" style="text;html=1;strokeColor=none;fillColor=none;align=left;verticalAlign=top;spacingLeft=4;spacingRight=4;whiteSpace=wrap;overflow=hidden;rotatable=0;points=[[0,0.5],[1,0.5]];portConstraint=eastwest;fontFamily=font-family: &#39;Roboto&#39;, sans-serif;;fontSource=https%3A%2F%2Ffonts.googleapis.com%2Fcss%3Ffamily%3Dfont-family%253A%2B&#39;Roboto&#39;%252C%2Bsans-serif%253B;fontColor=#F7F7F7;rounded=1;" parent="1mWBqxpM2r-LrcwGqkgM-37" vertex="1">
          <mxGeometry y="26" width="338" height="26" as="geometry" />
        </mxCell>
        <mxCell id="1mWBqxpM2r-LrcwGqkgM-39" value="" style="line;html=1;strokeWidth=1;fillColor=none;align=left;verticalAlign=middle;spacingTop=-1;spacingLeft=3;spacingRight=3;rotatable=0;labelPosition=right;points=[];portConstraint=eastwest;rounded=1;" parent="1mWBqxpM2r-LrcwGqkgM-37" vertex="1">
          <mxGeometry y="52" width="338" height="8" as="geometry" />
        </mxCell>
        <mxCell id="1mWBqxpM2r-LrcwGqkgM-40" value="FECHA LARGO 8" style="text;html=1;strokeColor=none;fillColor=none;align=left;verticalAlign=top;spacingLeft=4;spacingRight=4;whiteSpace=wrap;overflow=hidden;rotatable=0;points=[[0,0.5],[1,0.5]];portConstraint=eastwest;fontFamily=font-family: &#39;Roboto&#39;, sans-serif;;fontSource=https%3A%2F%2Ffonts.googleapis.com%2Fcss%3Ffamily%3Dfont-family%253A%2B&#39;Roboto&#39;%252C%2Bsans-serif%253B;fontColor=#F7F7F7;rounded=1;" parent="1mWBqxpM2r-LrcwGqkgM-37" vertex="1">
          <mxGeometry y="60" width="338" height="26" as="geometry" />
        </mxCell>
        <mxCell id="1mWBqxpM2r-LrcwGqkgM-41" value="COMERCIO=PRONTO" style="text;html=1;strokeColor=none;fillColor=none;align=left;verticalAlign=top;spacingLeft=4;spacingRight=4;whiteSpace=wrap;overflow=hidden;rotatable=0;points=[[0,0.5],[1,0.5]];portConstraint=eastwest;fontFamily=font-family: &#39;Roboto&#39;, sans-serif;;fontSource=https%3A%2F%2Ffonts.googleapis.com%2Fcss%3Ffamily%3Dfont-family%253A%2B&#39;Roboto&#39;%252C%2Bsans-serif%253B;fontColor=#F7F7F7;rounded=1;" parent="1mWBqxpM2r-LrcwGqkgM-37" vertex="1">
          <mxGeometry y="86" width="338" height="26" as="geometry" />
        </mxCell>
        <mxCell id="1mWBqxpM2r-LrcwGqkgM-42" value="SIN LOTE&lt;br&gt;" style="text;html=1;strokeColor=none;fillColor=none;align=left;verticalAlign=top;spacingLeft=4;spacingRight=4;whiteSpace=wrap;overflow=hidden;rotatable=0;points=[[0,0.5],[1,0.5]];portConstraint=eastwest;fontFamily=font-family: &#39;Roboto&#39;, sans-serif;;fontSource=https%3A%2F%2Ffonts.googleapis.com%2Fcss%3Ffamily%3Dfont-family%253A%2B&#39;Roboto&#39;%252C%2Bsans-serif%253B;fontColor=#F7F7F7;rounded=1;" parent="1mWBqxpM2r-LrcwGqkgM-37" vertex="1">
          <mxGeometry y="112" width="338" height="26" as="geometry" />
        </mxCell>
        <mxCell id="1mWBqxpM2r-LrcwGqkgM-43" value="MONTO_DESCUENTO &amp;gt; 0" style="text;html=1;strokeColor=none;fillColor=none;align=left;verticalAlign=top;spacingLeft=4;spacingRight=4;whiteSpace=wrap;overflow=hidden;rotatable=0;points=[[0,0.5],[1,0.5]];portConstraint=eastwest;fontFamily=font-family: &#39;Roboto&#39;, sans-serif;;fontSource=https%3A%2F%2Ffonts.googleapis.com%2Fcss%3Ffamily%3Dfont-family%253A%2B&#39;Roboto&#39;%252C%2Bsans-serif%253B;fontColor=#F7F7F7;rounded=1;" parent="1mWBqxpM2r-LrcwGqkgM-37" vertex="1">
          <mxGeometry y="138" width="338" height="26" as="geometry" />
        </mxCell>
        <mxCell id="1mWBqxpM2r-LrcwGqkgM-70" value="FIDELIDAD=0#TIENDAS=1#CONCILIADA=0" style="text;html=1;strokeColor=none;fillColor=none;align=left;verticalAlign=top;spacingLeft=4;spacingRight=4;whiteSpace=wrap;overflow=hidden;rotatable=0;points=[[0,0.5],[1,0.5]];portConstraint=eastwest;fontFamily=font-family: &#39;Roboto&#39;, sans-serif;;fontSource=https%3A%2F%2Ffonts.googleapis.com%2Fcss%3Ffamily%3Dfont-family%253A%2B&#39;Roboto&#39;%252C%2Bsans-serif%253B;fontColor=#F7F7F7;rounded=1;" parent="1mWBqxpM2r-LrcwGqkgM-37" vertex="1">
          <mxGeometry y="164" width="338" height="26" as="geometry" />
        </mxCell>
        <mxCell id="1mWBqxpM2r-LrcwGqkgM-45" value="FIDELIDAD=0#CONCILIADA=0_new.json" style="swimlane;html=1;fontStyle=1;align=center;verticalAlign=top;childLayout=stackLayout;horizontal=1;startSize=26;horizontalStack=0;resizeParent=1;resizeLast=0;collapsible=1;marginBottom=0;swimlaneFillColor=#366E79;rounded=1;shadow=1;comic=0;labelBackgroundColor=none;strokeWidth=1;fillColor=#0D5070;fontFamily=font-family: &#39;Roboto&#39;, sans-serif;;fontSize=12;glass=0;fontSource=https%3A%2F%2Ffonts.googleapis.com%2Fcss%3Ffamily%3Dfont-family%253A%2B&#39;Roboto&#39;%252C%2Bsans-serif%253B;swimlaneLine=1;strokeColor=#006EAF;fontColor=#ffffff;" parent="1" vertex="1">
          <mxGeometry x="427" y="-644" width="338" height="193" as="geometry" />
        </mxCell>
        <mxCell id="1mWBqxpM2r-LrcwGqkgM-46" value="&lt;b&gt;336.326 TXS&lt;/b&gt;" style="text;html=1;strokeColor=none;fillColor=none;align=left;verticalAlign=top;spacingLeft=4;spacingRight=4;whiteSpace=wrap;overflow=hidden;rotatable=0;points=[[0,0.5],[1,0.5]];portConstraint=eastwest;fontFamily=font-family: &#39;Roboto&#39;, sans-serif;;fontSource=https%3A%2F%2Ffonts.googleapis.com%2Fcss%3Ffamily%3Dfont-family%253A%2B&#39;Roboto&#39;%252C%2Bsans-serif%253B;fontColor=#F7F7F7;rounded=1;" parent="1mWBqxpM2r-LrcwGqkgM-45" vertex="1">
          <mxGeometry y="26" width="338" height="26" as="geometry" />
        </mxCell>
        <mxCell id="1mWBqxpM2r-LrcwGqkgM-47" value="" style="line;html=1;strokeWidth=1;fillColor=none;align=left;verticalAlign=middle;spacingTop=-1;spacingLeft=3;spacingRight=3;rotatable=0;labelPosition=right;points=[];portConstraint=eastwest;rounded=1;" parent="1mWBqxpM2r-LrcwGqkgM-45" vertex="1">
          <mxGeometry y="52" width="338" height="8" as="geometry" />
        </mxCell>
        <mxCell id="1mWBqxpM2r-LrcwGqkgM-48" value="FECHA LARGO 8" style="text;html=1;strokeColor=none;fillColor=none;align=left;verticalAlign=top;spacingLeft=4;spacingRight=4;whiteSpace=wrap;overflow=hidden;rotatable=0;points=[[0,0.5],[1,0.5]];portConstraint=eastwest;fontFamily=font-family: &#39;Roboto&#39;, sans-serif;;fontSource=https%3A%2F%2Ffonts.googleapis.com%2Fcss%3Ffamily%3Dfont-family%253A%2B&#39;Roboto&#39;%252C%2Bsans-serif%253B;fontColor=#F7F7F7;rounded=1;" parent="1mWBqxpM2r-LrcwGqkgM-45" vertex="1">
          <mxGeometry y="60" width="338" height="26" as="geometry" />
        </mxCell>
        <mxCell id="1mWBqxpM2r-LrcwGqkgM-49" value="COMERCIO=PRONTO" style="text;html=1;strokeColor=none;fillColor=none;align=left;verticalAlign=top;spacingLeft=4;spacingRight=4;whiteSpace=wrap;overflow=hidden;rotatable=0;points=[[0,0.5],[1,0.5]];portConstraint=eastwest;fontFamily=font-family: &#39;Roboto&#39;, sans-serif;;fontSource=https%3A%2F%2Ffonts.googleapis.com%2Fcss%3Ffamily%3Dfont-family%253A%2B&#39;Roboto&#39;%252C%2Bsans-serif%253B;fontColor=#F7F7F7;rounded=1;" parent="1mWBqxpM2r-LrcwGqkgM-45" vertex="1">
          <mxGeometry y="86" width="338" height="26" as="geometry" />
        </mxCell>
        <mxCell id="1mWBqxpM2r-LrcwGqkgM-50" value="SIN LOTE&lt;br&gt;" style="text;html=1;strokeColor=none;fillColor=none;align=left;verticalAlign=top;spacingLeft=4;spacingRight=4;whiteSpace=wrap;overflow=hidden;rotatable=0;points=[[0,0.5],[1,0.5]];portConstraint=eastwest;fontFamily=font-family: &#39;Roboto&#39;, sans-serif;;fontSource=https%3A%2F%2Ffonts.googleapis.com%2Fcss%3Ffamily%3Dfont-family%253A%2B&#39;Roboto&#39;%252C%2Bsans-serif%253B;fontColor=#F7F7F7;rounded=1;" parent="1mWBqxpM2r-LrcwGqkgM-45" vertex="1">
          <mxGeometry y="112" width="338" height="26" as="geometry" />
        </mxCell>
        <mxCell id="1mWBqxpM2r-LrcwGqkgM-51" value="MONTO_DESCUENTO &amp;gt; 0" style="text;html=1;strokeColor=none;fillColor=none;align=left;verticalAlign=top;spacingLeft=4;spacingRight=4;whiteSpace=wrap;overflow=hidden;rotatable=0;points=[[0,0.5],[1,0.5]];portConstraint=eastwest;fontFamily=font-family: &#39;Roboto&#39;, sans-serif;;fontSource=https%3A%2F%2Ffonts.googleapis.com%2Fcss%3Ffamily%3Dfont-family%253A%2B&#39;Roboto&#39;%252C%2Bsans-serif%253B;fontColor=#F7F7F7;rounded=1;" parent="1mWBqxpM2r-LrcwGqkgM-45" vertex="1">
          <mxGeometry y="138" width="338" height="26" as="geometry" />
        </mxCell>
        <mxCell id="1mWBqxpM2r-LrcwGqkgM-71" value="FIDELIDAD=0#CONCILIADA=0" style="text;html=1;strokeColor=none;fillColor=none;align=left;verticalAlign=top;spacingLeft=4;spacingRight=4;whiteSpace=wrap;overflow=hidden;rotatable=0;points=[[0,0.5],[1,0.5]];portConstraint=eastwest;fontFamily=font-family: &#39;Roboto&#39;, sans-serif;;fontSource=https%3A%2F%2Ffonts.googleapis.com%2Fcss%3Ffamily%3Dfont-family%253A%2B&#39;Roboto&#39;%252C%2Bsans-serif%253B;fontColor=#F7F7F7;rounded=1;" parent="1mWBqxpM2r-LrcwGqkgM-45" vertex="1">
          <mxGeometry y="164" width="338" height="26" as="geometry" />
        </mxCell>
        <mxCell id="1mWBqxpM2r-LrcwGqkgM-52" value="CONCILIADA=0#TIENDAS=1#MUEVO=1#AUTORIZADOR=1#FIDELIDAD=0.json" style="swimlane;html=1;fontStyle=1;align=center;verticalAlign=top;childLayout=stackLayout;horizontal=1;startSize=26;horizontalStack=0;resizeParent=1;resizeLast=0;collapsible=1;marginBottom=0;swimlaneFillColor=#366E79;rounded=1;shadow=1;comic=0;labelBackgroundColor=none;strokeWidth=1;fillColor=#0D5070;fontFamily=font-family: &#39;Roboto&#39;, sans-serif;;fontSize=12;glass=0;fontSource=https%3A%2F%2Ffonts.googleapis.com%2Fcss%3Ffamily%3Dfont-family%253A%2B&#39;Roboto&#39;%252C%2Bsans-serif%253B;swimlaneLine=1;strokeColor=#006EAF;fontColor=#ffffff;" parent="1" vertex="1">
          <mxGeometry x="427" y="-440" width="455" height="196" as="geometry" />
        </mxCell>
        <mxCell id="1mWBqxpM2r-LrcwGqkgM-53" value="&lt;b&gt;2 TXS&lt;/b&gt;" style="text;html=1;strokeColor=none;fillColor=none;align=left;verticalAlign=top;spacingLeft=4;spacingRight=4;whiteSpace=wrap;overflow=hidden;rotatable=0;points=[[0,0.5],[1,0.5]];portConstraint=eastwest;fontFamily=font-family: &#39;Roboto&#39;, sans-serif;;fontSource=https%3A%2F%2Ffonts.googleapis.com%2Fcss%3Ffamily%3Dfont-family%253A%2B&#39;Roboto&#39;%252C%2Bsans-serif%253B;fontColor=#F7F7F7;rounded=1;" parent="1mWBqxpM2r-LrcwGqkgM-52" vertex="1">
          <mxGeometry y="26" width="455" height="26" as="geometry" />
        </mxCell>
        <mxCell id="1mWBqxpM2r-LrcwGqkgM-54" value="" style="line;html=1;strokeWidth=1;fillColor=none;align=left;verticalAlign=middle;spacingTop=-1;spacingLeft=3;spacingRight=3;rotatable=0;labelPosition=right;points=[];portConstraint=eastwest;rounded=1;" parent="1mWBqxpM2r-LrcwGqkgM-52" vertex="1">
          <mxGeometry y="52" width="455" height="8" as="geometry" />
        </mxCell>
        <mxCell id="1mWBqxpM2r-LrcwGqkgM-55" value="FECHA LARGO 8" style="text;html=1;strokeColor=none;fillColor=none;align=left;verticalAlign=top;spacingLeft=4;spacingRight=4;whiteSpace=wrap;overflow=hidden;rotatable=0;points=[[0,0.5],[1,0.5]];portConstraint=eastwest;fontFamily=font-family: &#39;Roboto&#39;, sans-serif;;fontSource=https%3A%2F%2Ffonts.googleapis.com%2Fcss%3Ffamily%3Dfont-family%253A%2B&#39;Roboto&#39;%252C%2Bsans-serif%253B;fontColor=#F7F7F7;rounded=1;" parent="1mWBqxpM2r-LrcwGqkgM-52" vertex="1">
          <mxGeometry y="60" width="455" height="26" as="geometry" />
        </mxCell>
        <mxCell id="1mWBqxpM2r-LrcwGqkgM-56" value="COMERCIO=PRONTO" style="text;html=1;strokeColor=none;fillColor=none;align=left;verticalAlign=top;spacingLeft=4;spacingRight=4;whiteSpace=wrap;overflow=hidden;rotatable=0;points=[[0,0.5],[1,0.5]];portConstraint=eastwest;fontFamily=font-family: &#39;Roboto&#39;, sans-serif;;fontSource=https%3A%2F%2Ffonts.googleapis.com%2Fcss%3Ffamily%3Dfont-family%253A%2B&#39;Roboto&#39;%252C%2Bsans-serif%253B;fontColor=#F7F7F7;rounded=1;" parent="1mWBqxpM2r-LrcwGqkgM-52" vertex="1">
          <mxGeometry y="86" width="455" height="26" as="geometry" />
        </mxCell>
        <mxCell id="1mWBqxpM2r-LrcwGqkgM-57" value="SIN LOTE&lt;br&gt;" style="text;html=1;strokeColor=none;fillColor=none;align=left;verticalAlign=top;spacingLeft=4;spacingRight=4;whiteSpace=wrap;overflow=hidden;rotatable=0;points=[[0,0.5],[1,0.5]];portConstraint=eastwest;fontFamily=font-family: &#39;Roboto&#39;, sans-serif;;fontSource=https%3A%2F%2Ffonts.googleapis.com%2Fcss%3Ffamily%3Dfont-family%253A%2B&#39;Roboto&#39;%252C%2Bsans-serif%253B;fontColor=#F7F7F7;rounded=1;" parent="1mWBqxpM2r-LrcwGqkgM-52" vertex="1">
          <mxGeometry y="112" width="455" height="26" as="geometry" />
        </mxCell>
        <mxCell id="1mWBqxpM2r-LrcwGqkgM-58" value="MONTO_DESCUENTO &amp;gt; 0" style="text;html=1;strokeColor=none;fillColor=none;align=left;verticalAlign=top;spacingLeft=4;spacingRight=4;whiteSpace=wrap;overflow=hidden;rotatable=0;points=[[0,0.5],[1,0.5]];portConstraint=eastwest;fontFamily=font-family: &#39;Roboto&#39;, sans-serif;;fontSource=https%3A%2F%2Ffonts.googleapis.com%2Fcss%3Ffamily%3Dfont-family%253A%2B&#39;Roboto&#39;%252C%2Bsans-serif%253B;fontColor=#F7F7F7;rounded=1;" parent="1mWBqxpM2r-LrcwGqkgM-52" vertex="1">
          <mxGeometry y="138" width="455" height="26" as="geometry" />
        </mxCell>
        <mxCell id="1mWBqxpM2r-LrcwGqkgM-72" value="CONCILIADA=0#TIENDAS=1#MUEVO=1#AUTORIZADOR=1#FIDELIDAD=0" style="text;html=1;strokeColor=none;fillColor=none;align=left;verticalAlign=top;spacingLeft=4;spacingRight=4;whiteSpace=wrap;overflow=hidden;rotatable=0;points=[[0,0.5],[1,0.5]];portConstraint=eastwest;fontFamily=font-family: &#39;Roboto&#39;, sans-serif;;fontSource=https%3A%2F%2Ffonts.googleapis.com%2Fcss%3Ffamily%3Dfont-family%253A%2B&#39;Roboto&#39;%252C%2Bsans-serif%253B;fontColor=#F7F7F7;rounded=1;" parent="1mWBqxpM2r-LrcwGqkgM-52" vertex="1">
          <mxGeometry y="164" width="455" height="26" as="geometry" />
        </mxCell>
        <mxCell id="1mWBqxpM2r-LrcwGqkgM-59" value="FIDELIDAD=1#CONCILIADA=1.json" style="swimlane;html=1;fontStyle=1;align=center;verticalAlign=top;childLayout=stackLayout;horizontal=1;startSize=26;horizontalStack=0;resizeParent=1;resizeLast=0;collapsible=1;marginBottom=0;swimlaneFillColor=#366E79;rounded=1;shadow=1;comic=0;labelBackgroundColor=none;strokeWidth=1;fillColor=#0D5070;fontFamily=font-family: &#39;Roboto&#39;, sans-serif;;fontSize=12;glass=0;fontSource=https%3A%2F%2Ffonts.googleapis.com%2Fcss%3Ffamily%3Dfont-family%253A%2B&#39;Roboto&#39;%252C%2Bsans-serif%253B;swimlaneLine=1;strokeColor=#006EAF;fontColor=#ffffff;" parent="1" vertex="1">
          <mxGeometry x="427" y="-237" width="333" height="195" as="geometry" />
        </mxCell>
        <mxCell id="1mWBqxpM2r-LrcwGqkgM-60" value="&lt;b&gt;132.083 TXS&lt;/b&gt;" style="text;html=1;strokeColor=none;fillColor=none;align=left;verticalAlign=top;spacingLeft=4;spacingRight=4;whiteSpace=wrap;overflow=hidden;rotatable=0;points=[[0,0.5],[1,0.5]];portConstraint=eastwest;fontFamily=font-family: &#39;Roboto&#39;, sans-serif;;fontSource=https%3A%2F%2Ffonts.googleapis.com%2Fcss%3Ffamily%3Dfont-family%253A%2B&#39;Roboto&#39;%252C%2Bsans-serif%253B;fontColor=#F7F7F7;rounded=1;" parent="1mWBqxpM2r-LrcwGqkgM-59" vertex="1">
          <mxGeometry y="26" width="333" height="26" as="geometry" />
        </mxCell>
        <mxCell id="1mWBqxpM2r-LrcwGqkgM-61" value="" style="line;html=1;strokeWidth=1;fillColor=none;align=left;verticalAlign=middle;spacingTop=-1;spacingLeft=3;spacingRight=3;rotatable=0;labelPosition=right;points=[];portConstraint=eastwest;rounded=1;" parent="1mWBqxpM2r-LrcwGqkgM-59" vertex="1">
          <mxGeometry y="52" width="333" height="8" as="geometry" />
        </mxCell>
        <mxCell id="1mWBqxpM2r-LrcwGqkgM-62" value="FECHA LARGO 8" style="text;html=1;strokeColor=none;fillColor=none;align=left;verticalAlign=top;spacingLeft=4;spacingRight=4;whiteSpace=wrap;overflow=hidden;rotatable=0;points=[[0,0.5],[1,0.5]];portConstraint=eastwest;fontFamily=font-family: &#39;Roboto&#39;, sans-serif;;fontSource=https%3A%2F%2Ffonts.googleapis.com%2Fcss%3Ffamily%3Dfont-family%253A%2B&#39;Roboto&#39;%252C%2Bsans-serif%253B;fontColor=#F7F7F7;rounded=1;" parent="1mWBqxpM2r-LrcwGqkgM-59" vertex="1">
          <mxGeometry y="60" width="333" height="26" as="geometry" />
        </mxCell>
        <mxCell id="1mWBqxpM2r-LrcwGqkgM-63" value="COMERCIO=PRONTO" style="text;html=1;strokeColor=none;fillColor=none;align=left;verticalAlign=top;spacingLeft=4;spacingRight=4;whiteSpace=wrap;overflow=hidden;rotatable=0;points=[[0,0.5],[1,0.5]];portConstraint=eastwest;fontFamily=font-family: &#39;Roboto&#39;, sans-serif;;fontSource=https%3A%2F%2Ffonts.googleapis.com%2Fcss%3Ffamily%3Dfont-family%253A%2B&#39;Roboto&#39;%252C%2Bsans-serif%253B;fontColor=#F7F7F7;rounded=1;" parent="1mWBqxpM2r-LrcwGqkgM-59" vertex="1">
          <mxGeometry y="86" width="333" height="26" as="geometry" />
        </mxCell>
        <mxCell id="1mWBqxpM2r-LrcwGqkgM-64" value="SIN LOTE&lt;br&gt;" style="text;html=1;strokeColor=none;fillColor=none;align=left;verticalAlign=top;spacingLeft=4;spacingRight=4;whiteSpace=wrap;overflow=hidden;rotatable=0;points=[[0,0.5],[1,0.5]];portConstraint=eastwest;fontFamily=font-family: &#39;Roboto&#39;, sans-serif;;fontSource=https%3A%2F%2Ffonts.googleapis.com%2Fcss%3Ffamily%3Dfont-family%253A%2B&#39;Roboto&#39;%252C%2Bsans-serif%253B;fontColor=#F7F7F7;rounded=1;" parent="1mWBqxpM2r-LrcwGqkgM-59" vertex="1">
          <mxGeometry y="112" width="333" height="26" as="geometry" />
        </mxCell>
        <mxCell id="1mWBqxpM2r-LrcwGqkgM-65" value="MONTO_DESCUENTO &amp;gt; 0" style="text;html=1;strokeColor=none;fillColor=none;align=left;verticalAlign=top;spacingLeft=4;spacingRight=4;whiteSpace=wrap;overflow=hidden;rotatable=0;points=[[0,0.5],[1,0.5]];portConstraint=eastwest;fontFamily=font-family: &#39;Roboto&#39;, sans-serif;;fontSource=https%3A%2F%2Ffonts.googleapis.com%2Fcss%3Ffamily%3Dfont-family%253A%2B&#39;Roboto&#39;%252C%2Bsans-serif%253B;fontColor=#F7F7F7;rounded=1;" parent="1mWBqxpM2r-LrcwGqkgM-59" vertex="1">
          <mxGeometry y="138" width="333" height="28" as="geometry" />
        </mxCell>
        <mxCell id="1mWBqxpM2r-LrcwGqkgM-73" value="FIDELIDAD=1#CONCILIADA=1" style="text;html=1;strokeColor=none;fillColor=none;align=left;verticalAlign=top;spacingLeft=4;spacingRight=4;whiteSpace=wrap;overflow=hidden;rotatable=0;points=[[0,0.5],[1,0.5]];portConstraint=eastwest;fontFamily=font-family: &#39;Roboto&#39;, sans-serif;;fontSource=https%3A%2F%2Ffonts.googleapis.com%2Fcss%3Ffamily%3Dfont-family%253A%2B&#39;Roboto&#39;%252C%2Bsans-serif%253B;fontColor=#F7F7F7;rounded=1;" parent="1mWBqxpM2r-LrcwGqkgM-59" vertex="1">
          <mxGeometry y="166" width="333" height="29" as="geometry" />
        </mxCell>
        <mxCell id="1mWBqxpM2r-LrcwGqkgM-66" style="edgeStyle=orthogonalEdgeStyle;rounded=0;orthogonalLoop=1;jettySize=auto;html=1;exitX=1;exitY=0.5;exitDx=0;exitDy=0;entryX=0;entryY=0.5;entryDx=0;entryDy=0;" parent="1" source="1mWBqxpM2r-LrcwGqkgM-29" target="1mWBqxpM2r-LrcwGqkgM-38" edge="1">
          <mxGeometry relative="1" as="geometry" />
        </mxCell>
        <mxCell id="1mWBqxpM2r-LrcwGqkgM-67" style="edgeStyle=orthogonalEdgeStyle;rounded=0;orthogonalLoop=1;jettySize=auto;html=1;exitX=1;exitY=0.5;exitDx=0;exitDy=0;entryX=0;entryY=0.5;entryDx=0;entryDy=0;" parent="1" source="1mWBqxpM2r-LrcwGqkgM-29" target="1mWBqxpM2r-LrcwGqkgM-46" edge="1">
          <mxGeometry relative="1" as="geometry" />
        </mxCell>
        <mxCell id="1mWBqxpM2r-LrcwGqkgM-68" style="edgeStyle=orthogonalEdgeStyle;rounded=0;orthogonalLoop=1;jettySize=auto;html=1;exitX=1;exitY=0.5;exitDx=0;exitDy=0;entryX=0;entryY=0.5;entryDx=0;entryDy=0;" parent="1" source="1mWBqxpM2r-LrcwGqkgM-29" target="1mWBqxpM2r-LrcwGqkgM-53" edge="1">
          <mxGeometry relative="1" as="geometry" />
        </mxCell>
        <mxCell id="1mWBqxpM2r-LrcwGqkgM-69" style="edgeStyle=orthogonalEdgeStyle;rounded=0;orthogonalLoop=1;jettySize=auto;html=1;exitX=1;exitY=0.5;exitDx=0;exitDy=0;entryX=0;entryY=0.5;entryDx=0;entryDy=0;" parent="1" source="1mWBqxpM2r-LrcwGqkgM-29" target="1mWBqxpM2r-LrcwGqkgM-60" edge="1">
          <mxGeometry relative="1" as="geometry" />
        </mxCell>
        <mxCell id="XCZEjChv1KdmmRgAdbkG-1" value="&lt;font color=&quot;#000000&quot;&gt;transaccionesTotaldynamo.csv&lt;/font&gt;" style="swimlane;html=1;fontStyle=1;align=center;verticalAlign=top;childLayout=stackLayout;horizontal=1;startSize=26;horizontalStack=0;resizeParent=1;resizeLast=0;collapsible=1;marginBottom=0;swimlaneFillColor=#C3ABD0;rounded=1;shadow=1;comic=0;labelBackgroundColor=none;strokeWidth=1;fillColor=#AF99BA;fontFamily=font-family: &#39;Roboto&#39;, sans-serif;;fontSize=12;glass=0;fontSource=https%3A%2F%2Ffonts.googleapis.com%2Fcss%3Ffamily%3Dfont-family%253A%2B&#39;Roboto&#39;%252C%2Bsans-serif%253B;swimlaneLine=1;strokeColor=#3A5431;fontColor=#ffffff;" vertex="1" parent="1">
          <mxGeometry x="998" y="-629" width="229" height="163" as="geometry" />
        </mxCell>
        <mxCell id="XCZEjChv1KdmmRgAdbkG-2" value="&lt;b&gt;69.555 TXS&lt;/b&gt;" style="text;html=1;strokeColor=none;fillColor=none;align=left;verticalAlign=top;spacingLeft=4;spacingRight=4;whiteSpace=wrap;overflow=hidden;rotatable=0;points=[[0,0.5],[1,0.5]];portConstraint=eastwest;fontFamily=font-family: &#39;Roboto&#39;, sans-serif;;fontSource=https%3A%2F%2Ffonts.googleapis.com%2Fcss%3Ffamily%3Dfont-family%253A%2B&#39;Roboto&#39;%252C%2Bsans-serif%253B;fontColor=#000000;rounded=1;" vertex="1" parent="XCZEjChv1KdmmRgAdbkG-1">
          <mxGeometry y="26" width="229" height="26" as="geometry" />
        </mxCell>
        <mxCell id="XCZEjChv1KdmmRgAdbkG-3" value="" style="line;html=1;strokeWidth=1;fillColor=none;align=left;verticalAlign=middle;spacingTop=-1;spacingLeft=3;spacingRight=3;rotatable=0;labelPosition=right;points=[];portConstraint=eastwest;rounded=1;" vertex="1" parent="XCZEjChv1KdmmRgAdbkG-1">
          <mxGeometry y="52" width="229" height="8" as="geometry" />
        </mxCell>
        <mxCell id="XCZEjChv1KdmmRgAdbkG-5" value="&lt;b style=&quot;border-color: var(--border-color);&quot;&gt;37 TXS CONCILIADA=0&amp;nbsp;&lt;/b&gt;&lt;b&gt;&lt;br&gt;&lt;/b&gt;" style="text;html=1;strokeColor=none;fillColor=none;align=left;verticalAlign=top;spacingLeft=4;spacingRight=4;whiteSpace=wrap;overflow=hidden;rotatable=0;points=[[0,0.5],[1,0.5]];portConstraint=eastwest;fontFamily=font-family: &#39;Roboto&#39;, sans-serif;;fontSource=https%3A%2F%2Ffonts.googleapis.com%2Fcss%3Ffamily%3Dfont-family%253A%2B&#39;Roboto&#39;%252C%2Bsans-serif%253B;fontColor=#000000;rounded=1;" vertex="1" parent="XCZEjChv1KdmmRgAdbkG-1">
          <mxGeometry y="60" width="229" height="36" as="geometry" />
        </mxCell>
        <mxCell id="XCZEjChv1KdmmRgAdbkG-4" value="&lt;b&gt;69 528 TXS&lt;br&gt;&lt;br&gt;FIDELIDAD=0#CONCILIADA=0&amp;nbsp;&lt;br&gt;&lt;br&gt;&lt;/b&gt;" style="text;html=1;strokeColor=none;fillColor=none;align=left;verticalAlign=top;spacingLeft=4;spacingRight=4;whiteSpace=wrap;overflow=hidden;rotatable=0;points=[[0,0.5],[1,0.5]];portConstraint=eastwest;fontFamily=font-family: &#39;Roboto&#39;, sans-serif;;fontSource=https%3A%2F%2Ffonts.googleapis.com%2Fcss%3Ffamily%3Dfont-family%253A%2B&#39;Roboto&#39;%252C%2Bsans-serif%253B;fontColor=#000000;rounded=1;" vertex="1" parent="XCZEjChv1KdmmRgAdbkG-1">
          <mxGeometry y="96" width="229" height="62" as="geometry" />
        </mxCell>
        <mxCell id="XCZEjChv1KdmmRgAdbkG-7" style="edgeStyle=orthogonalEdgeStyle;rounded=0;orthogonalLoop=1;jettySize=auto;html=1;exitX=1;exitY=0.5;exitDx=0;exitDy=0;entryX=0;entryY=0.5;entryDx=0;entryDy=0;" edge="1" parent="1" source="7iV-3QqABHb4uCZC2DnF-16" target="7iV-3QqABHb4uCZC2DnF-24">
          <mxGeometry relative="1" as="geometry" />
        </mxCell>
        <mxCell id="XCZEjChv1KdmmRgAdbkG-14" style="edgeStyle=orthogonalEdgeStyle;rounded=0;orthogonalLoop=1;jettySize=auto;html=1;exitX=1;exitY=0.5;exitDx=0;exitDy=0;entryX=0;entryY=0.75;entryDx=0;entryDy=0;" edge="1" parent="1" source="7iV-3QqABHb4uCZC2DnF-25" target="1mWBqxpM2r-LrcwGqkgM-1">
          <mxGeometry relative="1" as="geometry" />
        </mxCell>
      </root>
    </mxGraphModel>
  </diagram>
</mxfile>
